<?xml version="1.0" encoding="utf-8"?>
<!-- Generator: Adobe Illustrator 17.0.0, SVG Export Plug-In . SVG Version: 6.00 Build 0)  -->
<!DOCTYPE svg PUBLIC "-//W3C//DTD SVG 1.1//EN" "http://www.w3.org/Graphics/SVG/1.1/DTD/svg11.dtd">
<svg version="1.1" id="Layer_1" xmlns="http://www.w3.org/2000/svg" xmlns:xlink="http://www.w3.org/1999/xlink" x="0px" y="0px"
	 width="757px" height="757px" viewBox="0 0 757 757" enable-background="new 0 0 757 757" xml:space="preserve">
<g>
	<g>
		<path fill="#FEFEFE" d="M1,555.93C1,372.453,1.013,188.976,0.906,5.499C0.904,1.75,1.75,0.904,5.499,0.906
			C176.645,1.014,347.79,1,518.935,1c0.164,2.01-1.606,2.347-2.794,3.057c-4.589,2.741-6.662,6.888-6.76,12.058
			c-0.155,8.16-0.223,16.326,0.012,24.482c0.215,7.474,6.022,12.978,13.174,12.887c6.997-0.089,12.633-5.417,12.887-12.668
			c0.297-8.487,0.13-16.987,0.055-25.481c-0.038-4.338-2.284-7.517-5.446-10.234C528.75,3.973,526.71,3.326,526.934,1
			c75.324,0,150.648,0.03,225.972-0.096c3.424-0.006,4.095,0.673,4.094,4.096c-0.103,249.302-0.103,498.604,0,747.906
			c0.001,3.423-0.67,4.095-4.094,4.094C503.604,756.896,254.302,756.896,5,757c-3.423,0.001-4.116-0.667-4.099-4.094
			C1.065,719.244,1,685.581,1,651.918c3.35,0.752,3.19,3.906,4.055,6.212c5.233,13.95,14.67,23.574,28.775,28.564
			c3.829,1.355,7.746,1.808,11.786,1.801c20.161-0.037,40.322-0.038,60.483-0.007c7.659,0.012,8.426,0.628,10.483,7.837
			c10.145,35.553,41.202,58.667,78.116,58.138c32.632-0.468,63.545-23.996,72.71-55.341c0.281-0.959,0.526-1.929,0.822-2.884
			c2.121-6.856,3.184-7.741,10.197-7.744c72.146-0.026,144.292-0.033,216.438,0.005c7.646,0.004,8.926,1.092,11.193,8.635
			c10.867,36.159,42.51,59.255,80.19,57.138c26.033-1.463,46.513-13.931,61.205-35.59c4.906-7.233,8.372-15.118,10.49-23.623
			c1.399-5.617,2.55-6.499,8.32-6.545c13.162-0.104,26.326-0.018,39.488-0.039c23.984-0.039,43.554-16.686,47.46-40.395
			c0.84-5.098,1.296-10.216,1.294-15.411c-0.046-126.797,0.078-253.594-0.15-380.391c-0.037-20.734-2.397-41.341-12.488-60.08
			c-10.351-19.224-26.5-29.544-48.492-29.726c-26.99-0.224-53.984-0.04-80.977-0.062c-8.289-0.007-8.541-0.522-8.956-8.716
			c-1.07-21.089-9.523-38.804-24.542-53.63c-15.27-15.073-33.97-22.617-54.884-23.073c-20.167-0.44-38.775,5.872-54.322,19.431
			c-14.845,12.947-24.169,29.07-27.595,48.55c-0.611,3.476-0.655,6.952-0.75,10.449c-0.161,5.905-1.125,6.864-7.155,6.967
			c-5.997,0.103-11.996,0.028-17.995,0.028c-26.492,0.002-52.985-0.013-79.477,0.005c-34.465,0.023-61.26,26.716-61.313,61.091
			c-0.032,20.661,0.011,41.322-0.015,61.982c-0.01,8.262-0.623,8.891-8.728,8.898c-28.325,0.023-56.65-0.004-84.976,0.013
			c-23.942,0.015-43.313,14.299-50.916,36.928c-13.58,40.422-26.797,80.964-40.253,121.427
			c-3.468,10.429-7.102,20.813-10.186,31.363c-1.483,5.075-4.442,8.274-9.309,10.24c-5.136,2.075-10.528,3.15-15.795,4.693
			c-21.367,6.261-37.023,19.155-46.417,39.47c-1.761,3.808-2.784,7.826-3.835,11.863C4.395,552.631,4.313,555.526,1,555.93z"/>
		<path fill="#F0CCB2" d="M1,555.93c1.696-1.152,1.919-3.075,2.337-4.804c7.395-30.576,27.734-47.665,57.331-55.141
			c0.964-0.244,1.913-0.573,2.889-0.74c8.955-1.524,14.066-6.153,16.861-15.443c7.412-24.636,16.107-48.884,24.166-73.328
			c7.483-22.696,14.902-45.413,22.158-68.182c4.301-13.495,9.809-26.079,21.859-34.674c9.019-6.433,18.94-10.496,30.029-10.573
			c29.826-0.209,59.654-0.165,89.48,0.014c4.452,0.027,5.97-0.976,5.909-5.73c-0.269-21.159-0.26-42.324-0.078-63.485
			c0.226-26.294,12.644-45.198,35.799-57.105c7.445-3.829,15.624-5.68,24.026-5.705c33.159-0.097,66.319-0.048,99.479-0.055
			c6.581-0.001,6.444-0.008,6.67-6.324c0.793-22.124,9.483-40.617,25.387-56c14.622-14.144,32.04-21.473,52.173-22.728
			c22.82-1.423,42.63,5.663,59.82,20.74c15.695,13.765,24.245,31.171,27.444,51.501c0.231,1.471,0.194,2.989,0.214,4.486
			c0.113,8.325,0.106,8.325,8.655,8.325c25.828,0,51.66,0.299,77.482-0.083c26.812-0.396,46.224,14.454,55.657,38.206
			c5.126,12.906,7.308,26.395,8.373,40.251c1.139,14.823,0.666,29.614,0.679,44.412c0.1,117.475,0.099,234.951,0.004,352.426
			c-0.013,15.873-4.6,30.16-16.822,41.175c-8.722,7.86-18.949,12.31-30.696,12.534c-14.159,0.27-28.327,0.205-42.489,0.035
			c-3.747-0.045-5.48,0.879-6.476,4.855c-6.88,27.487-24.08,46.679-50.298,56.171c-28.432,10.294-55.251,5.523-78.887-14.22
			c-13.462-11.245-22.198-25.319-26.211-42.346c-0.674-2.86-2.315-4.305-5.212-4.366c-1.333-0.028-2.666-0.018-3.999-0.019
			c-72.152-0.001-144.303,0.049-216.454-0.108c-4.954-0.011-7.193,1.251-8.637,6.272c-9.074,31.555-29.944,51.223-61.902,58.179
			c-29.944,6.517-61.978-5.945-80.775-32.566c-5.677-8.04-10.039-16.785-12.011-26.522c-0.783-3.868-2.522-5.411-6.757-5.362
			c-20.493,0.235-40.999-0.269-61.483,0.212c-18.915,0.445-37.103-13.917-42.77-30.914c-0.823-2.469-1.066-5.216-2.926-7.284
			c0-0.667,0-1.333,0-2c0.976-1.708,0.488-3.573,0.49-5.357c0.037-26.19,0.024-52.379,0.025-78.564
			c-0.25-2.347,0.57-4.776-0.515-7.067C1,557.93,1,556.93,1,555.93z"/>
		<path fill="#F0CCB2" d="M526.934,1c8.237,4.551,11,11.563,10.14,20.76c-0.585,6.258-0.052,12.616-0.134,18.927
			c-0.107,8.179-6.587,14.432-14.706,14.317c-7.968-0.113-14.184-6.211-14.298-14.205c-0.101-7.142,0.281-14.303-0.111-21.425
			C507.339,10.536,510.518,4.277,518.935,1C521.601,1,524.268,1,526.934,1z"/>
		<path fill="#F4DBC8" d="M1.975,564.913c0.009,26.78,0.028,53.561,0.006,80.341c-0.001,1.589,0.581,3.374-0.981,4.664
			c0-28.33,0-56.66,0-84.989C1.318,564.49,1.643,564.464,1.975,564.913z"/>
		<path fill="#F7E4D7" d="M1.975,564.913c-0.325,0.009-0.65,0.014-0.976,0.016c0-2,0-4,0-5.999
			C2.854,560.675,1.662,562.917,1.975,564.913z"/>
		<path fill="#F0CCB2" d="M578.854,69.779c-0.057-3.932,1.475-7.609,4.136-9.892c7.653-6.566,15.413-13.079,23.934-18.533
			c6.394-4.093,13.638-2.785,18.185,2.932c5.179,6.511,5.285,13.847-0.29,19.252c-7.388,7.164-15.715,13.242-24.116,19.151
			c-4.477,3.149-9.478,2.557-14.116,0.074C581.478,80.028,579.195,75.434,578.854,69.779z"/>
		<path fill="#F0CCB2" d="M466.047,69.011c-0.187,6.889-3.334,10.955-7.859,13.716c-4.485,2.737-9.662,3.161-14.07-0.067
			c-8.281-6.063-16.459-12.306-24.264-18.963c-5.274-4.498-5.207-13.067-0.667-19.141c4.211-5.634,12.693-7.657,18.751-3.381
			c8.503,6.002,16.602,12.631,24.445,19.482C464.855,62.814,466.383,66.391,466.047,69.011z"/>
		<path fill="#FEFEFE" d="M354.094,518.949c88.146,0,176.292,0.002,264.438-0.004c7.775-0.001,12.974-3.249,15.393-9.532
			c3.803-9.88-3.355-19.396-15.349-20.36c-1.49-0.12-2.998-0.031-4.498-0.031c-101.476-0.001-202.952,0-304.428-0.001
			c-6.623,0-6.625-0.004-6.625-6.832c-0.001-85.147-0.003-170.293,0.001-255.44c0.001-22.627,14.055-36.71,36.619-36.71
			c115.806-0.001,231.612,0,347.418,0c18.923,0,28.127,6.875,34.048,25.076c3.166,9.731,4.682,19.79,4.695,29.868
			c0.176,131.134,0.151,262.269,0.118,393.403c-0.004,14.015-8.423,22.402-22.402,22.532c-12.996,0.121-25.996-0.114-38.989,0.126
			c-3.47,0.064-4.443-1.368-5.23-4.329c-8.467-31.873-29.12-52.004-60.911-59.191c-26.372-5.962-50.428,0.862-70.709,19.209
			c-12.019,10.872-20.062,24.239-23.661,40.096c-0.745,3.283-2.289,4.18-5.492,4.177c-74.316-0.074-148.632-0.094-222.947,0.043
			c-4.112,0.008-4.846-2.021-5.675-5.167c-6.099-23.142-19.895-40.523-41.056-51.303c-26.091-13.291-52.556-12.283-77.657,2.527
			c-18.528,10.932-30.976,27.323-36.123,48.585c-0.929,3.839-2.28,5.426-6.555,5.37c-19.659-0.256-39.323-0.096-58.985-0.119
			c-11.758-0.013-18.564-6.797-18.581-18.621c-0.037-25.161-0.065-50.322,0.021-75.482c0.069-20.107,13.658-36.573,33.363-41.048
			c5.157-1.171,10.229-2.867,15.179-4.747c3.484-1.323,6.889-2.138,10.64-2.136C178.135,518.961,266.115,518.949,354.094,518.949z"
			/>
		<path fill="#FEFEFE" d="M273.903,405.753c0,25.986-0.08,51.972,0.084,77.957c0.025,4.041-0.958,5.413-5.23,5.402
			c-51.971-0.141-103.944-0.144-155.915,0.002c-4.444,0.012-4.361-1.301-3.198-4.791c9.958-29.897,19.759-59.846,29.62-89.776
			c6.232-18.916,12.509-37.816,18.723-56.738c2.753-8.385,13.615-15.728,24.011-15.757c28.984-0.082,57.969,0.037,86.952-0.103
			c4.116-0.02,5.029,1.615,5.013,5.347C273.849,353.448,273.903,379.601,273.903,405.753z"/>
		<path fill="#FEFEFE" d="M631.993,676.082c0.572,28.243-22.553,50.862-50.673,50.408c-29.415-0.474-50.141-22.526-50.223-51.215
			c-0.082-28.871,23.79-50.444,51.221-50.205C610.188,625.314,633.09,648.99,631.993,676.082z"/>
		<path fill="#FEFEFE" d="M243.001,675.846c-0.356,28.126-21.724,50.664-50.874,50.667c-27.743,0.003-50.468-22.147-50.237-51.648
			c0.214-27.279,23.272-50.292,50.983-49.826C220.382,625.503,242.986,647.611,243.001,675.846z"/>
		<path fill="#FEFEFE" d="M522.376,160.98c-16.331,0-32.663-0.093-48.993,0.072c-3.556,0.036-4.611-1.116-4.44-4.58
			c1.601-32.423,30.745-55.874,61.144-50.67c25.48,4.361,42.216,21.923,45.696,47.781c0.922,6.851,0.452,7.395-6.413,7.396
			C553.706,160.981,538.041,160.98,522.376,160.98z"/>
		<path fill="#F0CCB2" d="M416.918,391.831c0.311-12.769,4.078-26.652,13.379-38.661c1.683-2.173,1.568-3.055-0.808-4.512
			c-18.038-11.066-25.257-29.966-18.151-49.796c3.891-10.858,11.745-18.939,22.817-22.993c4.143-1.517,5.737-3.188,6.017-7.962
			c1.359-23.207,18.131-40.633,40.798-43.011c16.081-1.687,29.199,3.88,39.621,16.085c1.196,1.401,2.015,1.79,3.445,0.038
			c8.697-10.659,20.304-16.102,33.751-16.635c11.593-0.459,22.249,3.335,31.143,11.118c10.327,9.036,15.501,20.587,15.883,34.215
			c0.084,2.99,1.006,4.351,3.853,5.359c15.716,5.564,25.16,16.9,27.024,33.258c1.951,17.126-4.818,30.898-19.793,40.035
			c-2.634,1.607-3.104,2.369-1.103,5.126c12.087,16.654,16.354,35.615,11.679,55.327c-6.84,28.835-25.621,47.175-54.656,53.8
			c-15.706,3.584-31.1,0.943-45.458-6.539c-2.792-1.455-4.932-1.486-7.806-0.049c-28.14,14.062-59.45,9.303-81.708-12.983
			C423.493,429.68,416.856,413.116,416.918,391.831z"/>
		<path fill="#F0CCB2" d="M693.932,504.272c0.042,8.203-6.195,14.612-14.286,14.68c-8.431,0.071-14.773-6.225-14.746-14.638
			c0.026-8.134,6.335-14.443,14.46-14.457C687.479,489.842,693.89,496.184,693.932,504.272z"/>
		<path fill="#FEFEFE" d="M598.867,394.941c-1.517,21.489-16.247,36.519-35.398,39.07c-11.776,1.569-21.875-1.833-31.045-8.983
			c-6.672-5.202-12.447-5.469-19.605-0.229c-6.576,4.814-13.469,8.297-21.677,9.263c-13.569,1.597-24.953-2.869-34.053-12.601
			c-19.349-20.692-11.601-52.836,12.256-63.543c7.893-3.542,12.061-8.793,13.682-17.366c3.036-16.058,12.906-26.399,28.596-31.389
			c21.041-6.692,46.867,8.524,50.035,30.396c1.36,9.388,6.004,14.713,14.288,18.556
			C591.409,365.288,597.694,378.634,598.867,394.941z"/>
		<path fill="#FEFEFE" d="M558.127,285.994c-8.807-0.128-15.307-7.096-15.179-16.272c0.12-8.609,7.425-15.764,16.065-15.733
			c9.361,0.033,16.129,6.827,15.945,16.006C574.773,279.211,567.494,286.13,558.127,285.994z"/>
		<path fill="#FEFEFE" d="M486.201,285.999c-9.299,0.034-16.254-6.98-16.286-16.426c-0.03-8.676,7.037-15.576,15.961-15.584
			c8.652-0.008,15.92,7.114,16.049,15.726C502.061,278.858,495.197,285.966,486.201,285.999z"/>
		<path fill="#FEFEFE" d="M460.032,313.405c-0.058,6.956-3.866,10.678-10.873,10.627c-6.198-0.045-11.067-4.873-11.095-11
			c-0.024-5.375,5.86-11.075,11.385-11.03C455.236,302.05,460.083,307.272,460.032,313.405z"/>
		<path fill="#FEFEFE" d="M584.855,312.76c0.065-5.758,5.117-10.83,10.711-10.755c5.827,0.079,11.494,5.944,11.281,11.675
			c-0.219,5.875-5.402,10.445-11.736,10.346C588.464,323.922,584.775,319.869,584.855,312.76z"/>
	</g>
</g>
</svg>
