<?xml version="1.0" encoding="utf-8"?>
<!-- Generator: Adobe Illustrator 17.0.0, SVG Export Plug-In . SVG Version: 6.00 Build 0)  -->
<!DOCTYPE svg PUBLIC "-//W3C//DTD SVG 1.1//EN" "http://www.w3.org/Graphics/SVG/1.1/DTD/svg11.dtd">
<svg version="1.1" id="Layer_1" xmlns="http://www.w3.org/2000/svg" xmlns:xlink="http://www.w3.org/1999/xlink" x="0px" y="0px"
	 width="739.011px" height="739.011px" viewBox="0 0 739.011 739.011" enable-background="new 0 0 739.011 739.011"
	 xml:space="preserve">
<g>
	<g>
		<path fill="#F0CCB2" d="M359.955,1c6.333,0,12.665,0,18.998,0c3.615,1.065,7.316,0.243,10.967,0.502c2.782,0,5.565,0,8.345,0
			c22.082,0.357,43.675,3.906,65.012,9.53c37.694,9.935,72.991,25.309,105.778,46.332c29.345,18.816,55.315,41.581,78.461,67.666
			c27.022,30.453,48.261,64.483,63.95,101.99c13.522,32.324,22.78,65.886,25.701,100.806c2.134,25.516,2.021,51.197,0.266,76.801
			c-3.609,52.638-19.925,101.327-45.615,147.148c-15.002,26.757-33.237,51.059-54.415,73.196
			c-48.158,50.34-105.846,84.615-173.173,102.579c-23.396,6.242-47.106,10.046-71.429,10.513
			c-18.316,0.352-36.613,0.366-54.905-0.219c-20.045-0.641-39.7-4.263-59.097-9.155c-26.914-6.787-52.795-16.437-77.504-29.112
			c-26.952-13.826-51.938-30.568-74.661-50.652c-18.771-16.591-36.073-34.544-51.324-54.456
			c-28.599-37.34-49.453-78.548-62.16-123.857c-4.683-16.697-8.724-33.523-10.325-50.84c-0.688-7.444-1.065-14.91-1.322-22.385
			c0-2.525,0-5.047,0-7.571C1.22,385.199,2.097,380.54,1,375.953c0-4.333,0-8.666,0-12.998c1.097-4.554,0.22-9.18,0.502-13.761
			c0-2.5,0-5.003,0-7.502c0.174-21.075,3.374-41.756,8.525-62.135c9.792-38.738,25.321-75.044,46.794-108.762
			c15.545-24.41,33.94-46.477,54.615-66.732c30.289-29.674,64.682-53.348,103.111-71.13c23.952-11.083,48.885-19.299,74.675-25.096
			c16.965-3.813,34.064-5.779,51.388-6.334c2.777,0,5.55,0,8.325,0C352.604,1.243,356.323,2.065,359.955,1z"/>
		<path fill="#FEFEFE" d="M1.975,397.961c3.291,36.304,10.847,71.59,24.239,105.616c12.262,31.154,28.321,60.108,48.432,86.835
			c22.77,30.259,49.514,56.544,80.233,78.628c36.837,26.482,77.259,45.548,121.264,56.884c23.239,5.986,46.81,9.474,70.766,11.21
			c30.764,2.229,61.231,0.016,91.361-5.569c30.498-5.653,59.855-15.308,88.021-28.62c28.753-13.59,55.381-30.44,79.611-50.893
			c24.851-20.977,46.669-44.794,65.47-71.499c26.395-37.492,44.829-78.494,55.934-122.794c5.295-21.124,8.356-42.681,9.795-64.487
			c0.813-12.327,1.15-24.643,0.626-36.926c-1.772-41.507-9.658-81.791-24.843-120.597c-9.128-23.326-20.373-45.545-34.011-66.496
			c-12.262-18.836-26.127-36.46-41.71-52.738c-16.034-16.75-33.191-32.178-51.973-45.765c-18.226-13.185-37.527-24.534-57.84-34.263
			c-22.313-10.687-45.524-18.761-69.418-24.891c-16.268-4.174-32.885-6.633-49.562-8.599c-3.135-0.37-6.279-0.668-9.419-0.999
			c-0.637-0.332-0.638-0.664-0.001-0.997c111.96,0,223.92,0.017,335.88-0.083c3.253-0.003,4.182,0.42,4.181,4.003
			c-0.114,243.413-0.11,486.826-0.026,730.239c0.001,3.123-0.705,3.827-3.827,3.826c-243.413-0.085-486.826-0.088-730.239,0.026
			c-3.584,0.002-4.006-0.93-4.003-4.181C1.017,622.537,1,510.243,1,397.95C1.332,397.312,1.657,397.315,1.975,397.961z"/>
		<path fill="#FEFEFE" d="M339.956,1.997c-35.768,3.436-70.585,10.86-104.153,23.998c-23.331,9.131-45.52,20.433-66.5,34.017
			c-21.266,13.769-40.855,29.699-58.819,47.624c-14.396,14.364-27.794,29.566-39.695,46.054
			c-13.164,18.238-24.595,37.496-34.272,57.837c-10.552,22.18-18.77,45.171-24.751,68.946c-4.26,16.937-7.035,34.173-8.834,51.554
			c-0.308,2.975-0.638,5.947-0.959,8.921c-0.318,0.646-0.643,0.649-0.975,0.011C1,229.054,1.021,117.15,0.903,5.247
			C0.899,1.644,1.641,0.899,5.246,0.902C116.816,1.022,228.387,1,339.957,1C340.594,1.333,340.594,1.665,339.956,1.997z"/>
		<path fill="#F5DECD" d="M1.942,348.905c-0.358,4.68,1.077,9.481-0.942,14.05c0-4.666,0-9.332,0-13.998
			C1.285,348.399,1.6,348.407,1.942,348.905z"/>
		<path fill="#F4DBC9" d="M1,375.953c2.041,4.565,0.575,9.368,0.956,14.046c-0.349,0.594-0.668,0.578-0.956-0.048
			C1,385.285,1,380.619,1,375.953z"/>
		<path fill="#F5DFCE" d="M359.955,1c-3.538,1.961-7.363,0.608-11.04,0.954c-0.6-0.345-0.586-0.663,0.042-0.954
			C352.623,1,356.289,1,359.955,1z"/>
		<path fill="#F5DFCE" d="M389.993,1.954c-3.678-0.346-7.502,1.007-11.04-0.954c3.666,0,7.332,0,10.999,0
			C390.579,1.291,390.592,1.609,389.993,1.954z"/>
		<path fill="#FBF3EE" d="M348.956,1c-0.002,0.319-0.015,0.637-0.041,0.955c-2.987,0.014-5.973,0.028-8.959,0.042
			c0.002-0.332,0.002-0.665,0.001-0.997C342.957,1,345.957,1,348.956,1z"/>
		<path fill="#FBF3EE" d="M389.993,1.954c-0.025-0.317-0.039-0.635-0.042-0.954c3,0,5.999,0,8.999,0
			c-0.001,0.332-0.001,0.665,0.001,0.997C395.965,1.982,392.979,1.968,389.993,1.954z"/>
		<path fill="#FAF1EA" d="M1.942,348.905c-0.314,0.019-0.628,0.036-0.942,0.051c0-2.666,0-5.333,0-7.999
			c0.325-0.004,0.65-0.007,0.975-0.011C1.964,343.599,1.953,346.252,1.942,348.905z"/>
		<path fill="#FAF1EA" d="M1,389.951c0.319,0.009,0.638,0.024,0.957,0.047c0.006,2.654,0.012,5.308,0.018,7.962
			c-0.325-0.003-0.65-0.007-0.975-0.011C1,395.284,1,392.618,1,389.951z"/>
		<path fill="#FEFEFE" d="M444.975,697.167c-2.913,0.577-2.832-1.451-3.02-3.335c-0.987-9.918-1.625-19.889-3.09-29.736
			c-3.188-21.42-8.299-42.395-15.175-62.965c-5.655-16.918-12.401-33.367-20.049-49.45c-8.51-17.896-18.516-34.98-29.34-51.553
			c-11.65-17.838-24.633-34.738-38.701-50.713c-17.284-19.626-35.997-37.836-56.173-54.553
			c-24.684-20.452-51.158-38.203-79.467-53.145c-27.449-14.488-56.217-25.719-86.271-33.677c-22.43-5.939-45.237-9.321-68.32-10.984
			c-3.792-0.273-4.334-1.348-3.485-4.85c7.408-30.573,18.555-59.64,33.957-87.112c16.906-30.153,38.109-56.92,63.194-80.581
			c22-20.751,46.382-38.214,73.21-52.36c23.387-12.331,47.896-21.491,73.322-28.458c3.163-0.867,3.355,0.58,3.44,2.912
			c0.689,18.809,3.081,37.411,6.937,55.826c6.234,29.779,15.948,58.398,28.733,85.992c13.265,28.631,29.513,55.496,48.448,80.696
			c12.593,16.76,26.245,32.644,40.941,47.647c26.296,26.847,55.247,50.311,87.015,70.414c38.291,24.23,79.202,42.206,123.224,53.026
			c22.169,5.449,44.637,8.9,67.472,9.65c3.825,0.126,4.375,1.237,3.325,4.853c-4.593,15.808-9.547,31.449-16.022,46.632
			c-11.031,25.865-25.134,49.867-42.148,72.215c-11.011,14.463-23.147,27.904-36.416,40.308
			c-22.33,20.874-46.801,38.676-73.932,52.975c-24.603,12.966-50.397,22.451-77.222,29.399
			C447.916,696.612,446.438,696.86,444.975,697.167z"/>
		<path fill="#FEFEFE" d="M696.326,354.189c-8.437-0.763-16.879-1.468-25.309-2.304c-12.502-1.24-17.93,6.644-18.868,14.692
			c-0.982,8.427,6.878,16.253,17.134,17.268c10.75,1.064,21.491,2.471,32.327,2.081c3.152-0.113,3.594,0.897,3.591,4.013
			c-0.008,8.207-1.662,16.203-2.286,24.313c-0.277,3.604-2.489,3.758-5.192,3.709c-14.821-0.27-29.513-1.755-44.116-4.318
			c-24.495-4.299-48.282-11.067-71.298-20.455c-30.296-12.357-58.659-28.127-85.272-47.268
			c-22.916-16.481-44.146-34.78-63.597-55.153c-14.358-15.039-27.603-31.004-39.773-47.928
			c-14.025-19.504-26.451-39.904-36.892-61.491c-8.841-18.28-16.376-37.084-22.128-56.625
			c-7.881-26.772-12.725-53.975-13.756-81.882c-0.183-4.96,1.377-6.828,6.381-6.931c7.129-0.147,14.112-2.146,21.326-2.026
			c3.189,0.053,4.415,0.919,4.408,4.244c-0.052,24.971,4.38,49.327,11.083,73.243c7.619,27.182,18.754,52.962,32.816,77.458
			c16.459,28.669,35.869,55.127,59.022,78.783c2.431,2.484,4.741,5.086,7.191,7.55c6.316,6.35,16.133,6.623,22.473,0.678
			c6.418-6.018,7.014-15.217,0.911-21.852c-15.762-17.138-31.417-34.365-44.598-53.624c-13.549-19.796-25.461-40.505-34.669-62.74
			c-7.723-18.649-13.864-37.746-17.748-57.553c-2.626-13.393-4.375-26.878-4.622-40.564c-0.078-4.336,1.036-5.916,5.579-5.621
			c19.285,1.251,38.343,3.987,57.121,8.488c43.539,10.437,83.642,28.586,119.755,55.042c23.685,17.352,44.805,37.475,63.411,60.38
			c18.925,23.297,34.631,48.458,46.687,75.811c12.118,27.492,20.671,56.138,24.588,86.041c1.273,9.715,2.695,19.391,3.256,29.215
			c0.267,4.676-0.962,5.564-4.92,5.123c-1.316-0.147-2.663-0.023-3.996-0.023C696.341,354.037,696.334,354.113,696.326,354.189z"/>
		<path fill="#FEFEFE" d="M345.907,697.476c0.136,8.054,0.166,7.716-7.545,6.873c-16.04-1.753-31.996-4.067-47.661-7.861
			c-17.133-4.149-33.913-9.56-50.205-16.376c-34.482-14.427-65.826-33.817-93.758-58.747
			c-38.067-33.977-67.379-74.131-87.316-121.206c-10.378-24.504-17.252-49.931-22.026-75.99c-1.494-8.157-2.303-16.446-3.246-24.695
			c-0.719-6.294-0.347-6.789,5.837-6.44c16.968,0.958,33.567,4.046,50.052,8.234c19.293,4.902,37.707,12.032,55.556,20.617
			c20.874,10.041,40.464,22.279,58.986,36.212c17.863,13.437,34.357,28.421,49.623,44.704c21.352,22.773,39.74,47.738,54.822,75.144
			c12.736,23.142,22.727,47.361,29.278,72.924C342.266,666.327,345.04,682.047,345.907,697.476z"/>
		<path fill="#FEFEFE" d="M409.856,693.233c0.251,9.991,0.183,9.598-6.928,10.842c-6.779,1.186-13.651,0.181-20.375,1.584
			c-3.186,0.665-4.539-0.85-4.595-4.093c-0.31-18.032-3.11-35.771-7.253-53.252c-3.799-16.026-9.083-31.605-15.212-46.944
			c-8.931-22.351-20.144-43.451-33.237-63.565c-10.617-16.312-22.434-31.748-35.288-46.387
			c-12.753-14.523-26.356-28.21-40.966-40.83c-19.916-17.203-41.136-32.656-64.051-45.691
			c-24.531-13.954-50.252-25.135-77.397-32.934c-21.648-6.219-43.686-10.255-66.239-10.923c-4.226-0.125-5.926-1.661-5.165-5.674
			c1.403-7.392,0.347-14.958,1.778-22.362c0.538-2.785,0.874-4.376,4.479-4.202c27.224,1.313,53.787,6.155,79.833,14.102
			c33.153,10.115,64.293,24.672,93.53,43.14c19.396,12.252,37.834,25.899,55.093,41.121c24.031,21.195,45.859,44.367,65.04,70.056
			c19.396,25.977,35.862,53.634,48.78,83.39c11.639,26.812,20.012,54.619,24.905,83.41
			C408.394,674.647,409.016,685.474,409.856,693.233z"/>
		<path fill="#F0CCB2" d="M567.764,317.883c8.709-0.027,16.091,7.097,16.124,15.561c0.034,8.718-7.314,16.072-16.209,16.224
			c-8.365,0.142-15.634-7.259-15.731-16.016C551.852,324.982,558.945,317.91,567.764,317.883z"/>
	</g>
</g>
</svg>
