<?xml version="1.0" encoding="utf-8"?>
<!-- Generator: Adobe Illustrator 17.0.0, SVG Export Plug-In . SVG Version: 6.00 Build 0)  -->
<!DOCTYPE svg PUBLIC "-//W3C//DTD SVG 1.1//EN" "http://www.w3.org/Graphics/SVG/1.1/DTD/svg11.dtd">
<svg version="1.1" id="Layer_1" xmlns="http://www.w3.org/2000/svg" xmlns:xlink="http://www.w3.org/1999/xlink" x="0px" y="0px"
	 width="634.015px" height="570.023px" viewBox="0 0 634.015 570.023" enable-background="new 0 0 634.015 570.023"
	 xml:space="preserve">
<g>
	<g>
		<path fill="#F0CCB2" d="M1,387.951c0-4.666,0-9.332,0-13.998c1.989-8.096,1.512-16.464,2.847-24.663
			c3.984-24.476,7.748-48.988,11.595-73.486c4.492-28.609,9.172-57.191,13.266-85.858c1.621-11.348,1.83-22.902,4.738-34.076
			c6.873-26.416,20.504-49.003,39.082-68.771C101.056,56.742,136.41,37.355,175.1,23.353c27.524-9.961,55.897-16.475,84.918-19.949
			c13.859-1.659,27.873-1.638,41.843-1.902c9.673,0,19.341,0,29.002,0c49.617-0.46,97.315,9.234,143.073,28.103
			c32.642,13.46,62.404,31.655,86.649,57.784c22.898,24.676,38.645,53.107,41.94,87.109c3.28,33.839,9.946,67.137,14.812,100.718
			c4.488,30.969,9.836,61.807,14.418,92.762c5.02,33.911-5.299,63.834-24.755,91.088c-18.471,25.875-43.055,44.763-70.462,60.233
			c-34.122,19.261-70.879,31.277-109.022,39.513c-18.578,4.011-37.363,6.695-56.217,8.737c-11.219,1.215-22.577,1.312-33.885,1.351
			c-20.981,0.072-41.978,0.529-62.937-0.545c-27.161-1.391-53.922-5.796-80.366-12.068c-31.229-7.407-61.51-17.531-89.951-32.604
			c-32.036-16.978-60.484-38.301-81.266-68.619c-9.02-13.159-15.833-27.385-19.737-42.911C1.824,406.845,2.409,401.26,1,395.95
			c0-0.667,0-1.333,0-2C1.794,391.951,1.794,389.951,1,387.951z"/>
		<path fill="#FEFEFE" d="M1,395.95c2.524,4.622,2.45,9.908,3.743,14.847c7.033,26.851,21.543,49.16,41.033,68.534
			c25.703,25.551,56.402,43.217,89.754,56.551c34.297,13.712,69.961,22.088,106.513,27.279c33.42,4.746,66.985,5.913,100.564,4.475
			c42.146-1.805,83.677-8.396,124.068-20.934c35.987-11.172,69.98-26.484,100.092-49.629c25.453-19.565,45.84-43.142,57.162-73.5
			c6.867-18.412,9.488-37.337,5.83-57.25c-5.37-29.234-9.32-58.729-13.944-88.102c-4.728-30.033-9.694-60.029-14.216-90.092
			c-1.33-8.84-1.089-17.881-3.016-26.702c-5.3-24.264-16.519-45.546-32.307-64.514c-22.827-27.425-51.662-46.647-83.847-61.357
			c-30.489-13.935-62.462-22.82-95.425-28.215c-18.203-2.979-36.598-4.532-55.034-5.404c-0.649-0.304-0.653-0.617-0.013-0.939
			C431.279,1,530.6,1.023,629.921,0.904c3.424-0.004,4.096,0.672,4.094,4.095c-0.107,186.977-0.107,373.953,0,560.93
			c0.002,3.423-0.671,4.096-4.094,4.094c-208.307-0.105-416.614-0.105-624.922,0c-3.423,0.002-4.105-0.669-4.097-4.094
			C1.039,509.27,1,452.61,1,395.95z"/>
		<path fill="#FEFEFE" d="M300.95,1.939c-48.571,2.129-95.867,10.61-140.951,29.293c-33.575,13.914-64.071,32.681-88.628,59.957
			c-21.226,23.576-35.762,50.631-39.138,82.553c-4.322,40.86-11.893,81.206-18.074,121.772c-3.73,24.476-7.498,48.946-11.284,73.413
			C2.6,370.703,2.485,372.601,1,373.953C1,251.06,1.018,128.167,0.909,5.273c-0.003-3.53,0.633-4.382,4.311-4.377
			C103.8,1.026,202.381,1,300.962,1C301.603,1.322,301.599,1.635,300.95,1.939z"/>
		<path fill="#FCF7F3" d="M300.95,1.939c0.006-0.313,0.011-0.626,0.013-0.939c10.332,0,20.664,0,30.996,0
			c0.002,0.313,0.006,0.627,0.013,0.939C321.631,1.939,311.29,1.939,300.95,1.939z"/>
		<path fill="#F5DDCC" d="M1,387.951c1.41,2,1.497,4,0,5.999C1,391.951,1,389.951,1,387.951z"/>
		<path fill="#FEFEFE" d="M583.862,259.991c3.144,20.192,6.271,40.387,9.438,60.575c3.142,20.024,6.994,39.966,9.271,60.087
			c1.703,15.044-3.088,29.343-9.511,42.879c-9.847,20.755-24.975,37.251-42.883,51.23c-31.085,24.265-66.717,39.019-104.407,49.524
			c-22.493,6.269-45.362,10.548-68.466,13.337c-27.287,3.295-54.771,4.368-82.229,3.107c-43.013-1.976-85.355-8.347-126.395-21.873
			c-32.959-10.863-63.959-25.555-90.912-47.833c-17.445-14.419-31.476-31.598-40.391-52.536c-7.286-17.112-8.678-34.68-5.205-53.208
			c5.079-27.092,8.633-54.469,12.89-81.716c1.331-8.52,2.835-17.013,4.406-26.391c3.794,5.544,7.096,10.597,10.625,15.487
			c15.843,21.957,36.359,38.721,59.107,52.988c34.03,21.342,71.449,33.918,110.496,41.83c21.817,4.421,43.953,6.663,66.267,7.827
			c17.859,0.932,35.646,0.633,53.356-0.62c30.899-2.186,61.339-7.468,91.057-16.612c28.975-8.915,56.448-20.933,81.674-37.867
			c24.219-16.258,44.735-36.132,59.825-61.3C583.064,258.304,583.37,259.318,583.862,259.991z"/>
		<path fill="#FEFEFE" d="M315.937,28.934c42.695,0.394,84.086,5.94,124.226,19.313c27.662,9.216,53.772,21.599,76.769,39.785
			c26.687,21.104,47.019,46.599,53.953,80.905c5.32,26.32,0.185,50.985-12.752,74.114c-16.74,29.926-42.297,50.622-71.9,66.656
			c-33.438,18.111-69.418,28.598-106.898,34.27c-23.565,3.567-47.276,5.475-71.084,4.775c-25.099-0.737-50.031-3.243-74.724-8.295
			c-30.886-6.319-60.439-16.204-88.082-31.362c-32.347-17.737-59.71-40.818-75.397-75.171
			c-14.691-32.173-13.444-64.233,2.722-95.683c15.739-30.618,40.929-51.628,70.223-68.213
			c34.171-19.347,71.235-30.141,109.86-36.105C273.932,30.671,295.133,29.179,315.937,28.934z"/>
		<path fill="#F9EBE1" d="M583.862,259.991c-0.662-0.361-1.324-0.722-1.987-1.083c0.148-0.622,0.372-1.44,1.083-1.285
			C584.255,257.904,583.79,259.102,583.862,259.991z"/>
		<path fill="#F0CCB2" d="M322.941,513.938c-32.933-0.13-54.324-19.515-56.779-45.04c-0.619-6.438,1.446-12.495,3.977-18.354
			c5.686-13.165,14.354-24.319,23.716-34.985c3.62-4.125,7.293-8.221,11.183-12.087c6.168-6.13,14.948-7.147,21.145-1.169
			c16.243,15.668,31.355,32.509,38.631,54.412c4.576,13.776,0.601,26.827-8.269,37.9
			C346.173,507.56,332.266,513.918,322.941,513.938z"/>
		<path fill="#F0CCB2" d="M318.986,321.054c-41.882,0.486-79.894-5.133-116.857-17.287c-26.6-8.747-51.595-20.829-73.154-38.953
			c-19.96-16.78-35.256-36.832-39.327-63.506c-3.166-20.743,1.313-40.058,12.372-57.808c12.717-20.412,30.592-35.382,51.04-47.487
			c30.931-18.31,64.68-28.712,99.877-34.663c15.063-2.547,30.278-4.027,45.608-4.541c11.642-0.39,23.216-0.442,34.869-0.02
			c31.111,1.126,61.503,6.087,91.223,15.233c26.771,8.238,51.915,19.868,74.222,36.998c17.846,13.704,32.433,30.132,40.147,51.731
			c10.526,29.474,4.6,56.356-13.466,81.057c-13.835,18.915-32.163,32.531-52.546,43.654c-27.912,15.23-57.878,24.542-88.982,30.099
			C361.58,319.568,338.894,321.896,318.986,321.054z"/>
		<path fill="#FEFEFE" d="M294.962,466.822c-0.148-1.701,0.349-3.439,1.125-5.134c4.408-9.638,10.755-17.953,17.533-25.999
			c1.913-2.271,3.353-2.78,5.436-0.171c5.609,7.028,10.885,14.254,15.68,21.888c7.228,11.507-0.267,23.24-9.302,27.349
			C311.892,490.915,295.061,481.25,294.962,466.822z"/>
		<path fill="#FEFEFE" d="M321.332,294.086c-47.848,0.125-89.448-6.823-129.158-23.345c-19.022-7.914-36.405-18.69-51.56-32.808
			c-1.449-1.35-2.569-3.047-3.884-4.545c-8.517-9.7-8.735-6.788,0.634-17.166c16.798-18.607,38.365-30.147,61.306-39.187
			c27.257-10.741,55.69-16.375,84.831-19.275c44.626-4.441,88.37-0.198,131.215,12.53c25.684,7.629,49.843,18.783,70.711,36.077
			c5.782,4.792,10.814,10.349,15.547,16.181c1.506,1.856,1.491,3.22-0.063,5.196c-9.171,11.668-20.384,20.971-32.942,28.695
			c-30.125,18.529-63.235,28.359-97.944,33.662C352.224,292.821,334.366,294.211,321.332,294.086z"/>
		<path fill="#FEFEFE" d="M315.951,83.867c36.743-0.566,72.631,4.628,107.439,16.489c23.968,8.168,46.496,19.261,65.407,36.406
			c12.625,11.446,22.572,24.896,25.703,42.307c0.774,4.304,0.47,8.629,0.497,12.95c0.005,0.788,0.154,1.792-0.746,2.203
			c-1.169,0.534-1.797-0.501-2.482-1.158c-27.696-26.551-61.579-41.226-97.916-51.372c-24.291-6.783-49.015-10.207-74.144-11.919
			c-38.162-2.6-75.797,0.661-112.825,9.635c-30.714,7.444-59.954,18.889-86.121,37.158c-6.556,4.577-12.536,9.863-18.664,14.973
			c-1.163,0.969-2.042,3.416-3.828,2.376c-1.621-0.945-1.259-3.304-1.157-5.119c0.851-15.091,6.049-28.44,15.677-40.17
			c17.683-21.542,41.135-34.469,66.428-44.511c24.557-9.75,50.148-15.355,76.401-18.292
			C289.05,84.322,302.474,83.805,315.951,83.867z"/>
		<path fill="#F0CCB2" d="M370.768,247.037c-17.154,0-34.309,0.03-51.463-0.016c-5.934-0.016-10.247-2.823-12.454-8.321
			c-2.018-5.028-1.389-9.887,2.436-13.913c2.99-3.148,6.855-4.728,11.204-4.732c33.643-0.034,67.286-0.086,100.928,0.025
			c8.497,0.028,15.262,6.278,15.259,13.457c-0.004,7.734-6.483,13.484-15.445,13.514c-16.821,0.056-33.643,0.016-50.464,0.016
			C370.768,247.056,370.768,247.047,370.768,247.037z"/>
		<path fill="#F0CCB2" d="M249.778,247.02c-3.688,0.096-7.395,0.115-10.489-2.331c-3.845-3.041-6.643-6.878-5.905-11.956
			c0.783-5.387,3.55-9.634,9.121-11.488c5.438-1.809,10.823-1.933,16.041,0.576c5.829,2.803,8.564,8.603,7.285,14.952
			c-1.152,5.719-6.262,9.9-12.556,10.238C252.113,247.074,250.944,247.02,249.778,247.02z"/>
	</g>
</g>
</svg>
