<?xml version="1.0" encoding="utf-8"?>
<!-- Generator: Adobe Illustrator 17.0.0, SVG Export Plug-In . SVG Version: 6.00 Build 0)  -->
<!DOCTYPE svg PUBLIC "-//W3C//DTD SVG 1.1//EN" "http://www.w3.org/Graphics/SVG/1.1/DTD/svg11.dtd">
<svg version="1.1" id="Layer_1" xmlns="http://www.w3.org/2000/svg" xmlns:xlink="http://www.w3.org/1999/xlink" x="0px" y="0px"
	 width="455.039px" height="720.004px" viewBox="0 0 455.039 720.004" enable-background="new 0 0 455.039 720.004"
	 xml:space="preserve">
<g>
	<g>
		<path fill="#F0CCB2" d="M75.991,1c100.987,0,201.975,0,302.962,0c8.621,2.723,11.965,7.229,12.017,16.986
			c0.148,27.823,0.294,55.649-0.072,83.467c-0.14,10.663,1.664,20.751,4.611,30.895c11.604,39.94,23.273,79.862,34.549,119.897
			c6.088,21.615,12.741,43.069,18.411,64.807c3.763,14.426,5.413,29.107,5.427,43.934c0.092,101.296,0.004,202.592,0.094,303.888
			c0.014,16.162-5.721,29.861-16.341,41.723c-8.611,9.619-19.748,12.843-32.288,12.838c-118.623-0.046-237.246,0.027-355.869-0.072
			c-24.658-0.02-44.203-17.802-47.273-42.377c-0.371-2.966-0.924-5.926-0.716-8.944c0-1.907,0-3.813,0-5.721
			C1.502,565.16,1.505,468,1.477,370.84c-0.001-1.959,0.494-3.992-0.477-5.886c0-1,0-2,0-3c1.031-1.786,0.263-3.734,0.502-5.594
			c-0.223-21.899,5.175-42.765,11.194-63.598c15.886-54.987,31.836-109.956,47.623-164.971c1.757-6.124,2.732-12.255,2.699-18.668
			c-0.143-27.979-0.061-55.96-0.065-83.94c-0.001-3.502,0.328-6.95,0.86-10.427C64.931,7.443,68.281,2.358,75.991,1z"/>
		<path fill="#FEFEFE" d="M1.975,667.938c1.063,21.601,16.176,42.83,34.863,48.768c5.261,1.671,10.746,2.104,16.263,2.104
			c115.964-0.008,231.928-0.09,347.892,0.064c23.74,0.031,38.387-12.248,46.848-32.245c3.663-8.658,5.211-17.771,5.202-27.255
			c-0.085-95.304-0.11-190.607-0.013-285.911c0.026-25.527-4.536-50.246-11.634-74.647c-10.967-37.7-21.693-75.47-32.558-113.2
			c-6.215-21.582-12.475-43.151-18.789-64.704c-0.761-2.598-1.103-5.167-1.101-7.857c0.031-30.657-0.11-61.315,0.102-91.971
			c0.06-8.662-2.11-15.708-10.097-20.085c23.997,0,47.995,0.09,71.99-0.101c3.429-0.027,4.101,0.677,4.096,4.101
			c-0.121,89.489-0.096,178.977-0.096,268.466c0,147.315-0.017,294.63,0.094,441.944c0.003,3.748-0.843,4.597-4.593,4.594
			c-148.315-0.111-296.629-0.11-444.944,0c-3.748,0.003-4.66-0.834-4.603-4.595C1.14,699.582,1,683.748,1,667.917
			C1.339,667.276,1.664,667.283,1.975,667.938z"/>
		<path fill="#FEFEFE" d="M75.991,1c-8.888,4.371-10.889,12.248-10.881,21.208c0.025,27.136-0.302,54.277,0.161,81.405
			c0.194,11.372-2.077,22.035-5.217,32.776C48.951,174.361,38.023,212.386,27.1,250.41c-6.242,21.73-12.424,43.478-18.488,65.258
			c-3.756,13.49-5.257,27.378-6.714,41.258C1.62,357.592,1.32,357.602,1,356.955C1,239.773,1.025,122.59,0.892,5.407
			C0.888,1.466,1.994,0.884,5.582,0.91C29.05,1.084,52.521,1,75.991,1z"/>
		<path fill="#F4DBCA" d="M1,364.954c1.566,1.694,0.983,3.792,0.983,5.729c0.021,97.413,0.013,194.826,0.008,292.239
			c-0.334,0.632-0.664,0.63-0.991-0.005C1,563.596,1,464.275,1,364.954z"/>
		<path fill="#FBF4EE" d="M1,356.955c0.3-0.012,0.6-0.022,0.899-0.029c0.002,1.73,0.598,3.566-0.899,5.028
			C1,360.288,1,358.622,1,356.955z"/>
		<path fill="#F7E6D9" d="M1,662.917c0.331-0.001,0.662,0.001,0.992,0.005c-0.005,1.671-0.01,3.343-0.016,5.015
			C1.65,667.92,1.325,667.913,1,667.917C1,666.25,1,664.584,1,662.917z"/>
		<path fill="#FEFEFE" d="M227.35,684.032c-58.652,0-117.304,0.003-175.956-0.002c-13.441-0.001-20.901-6.865-22.551-20.112
			c-0.663-5.322-0.761-10.61-0.761-15.93c-0.008-89.478,0.021-178.955-0.032-268.433c-0.016-26.884,5.239-52.806,12.963-78.443
			c9.6-31.862,18.547-63.921,27.764-95.899c6.128-21.261,12.258-42.522,18.318-63.802c0.703-2.469,1.967-3.729,4.591-3.501
			c0.992,0.086,1.998,0.009,2.998,0.009c88.311,0,176.623,0.04,264.934-0.106c5.012-0.008,7.11,1.348,8.531,6.396
			c10.415,36.995,21.429,73.821,31.854,110.814c7.578,26.89,16.475,53.423,22.338,80.782c2.339,10.914,3.587,21.998,3.595,33.165
			c0.061,75.481,0.013,150.962,0.168,226.443c0.009,4.631-1.644,5.48-5.813,5.472c-60.318-0.113-120.636-0.079-180.955-0.076
			c-10.917,0.001-17.76,6.284-17.09,16.75c0.583,9.099,4.171,17.406,17.503,17.372c59.818-0.156,119.637-0.069,179.455-0.067
			c6.792,0,6.801,0.008,6.799,6.819c-0.003,6.498-0.015,12.997-0.045,19.495c-0.023,4.961-1.394,9.59-4.084,13.7
			c-3.984,6.087-9.336,9.283-17.067,9.255c-52.32-0.193-104.64-0.1-156.96-0.1C241.013,684.032,234.182,684.032,227.35,684.032z"/>
		<path fill="#FEFEFE" d="M227.103,35.026c42.972,0,85.943,0.079,128.914-0.108c4.914-0.021,6.142,1.483,6.079,6.217
			c-0.252,18.818-0.238,37.642-0.006,56.46c0.055,4.469-1.366,5.601-5.697,5.595c-86.276-0.114-172.552-0.118-258.829,0.008
			c-4.513,0.007-5.61-1.444-5.563-5.732c0.205-18.985,0.225-37.976-0.012-56.96c-0.056-4.493,1.383-5.583,5.699-5.568
			C140.826,35.084,183.965,35.026,227.103,35.026z"/>
		<path fill="#F0CCB2" d="M316.073,473.679c-0.544,23.353-7.36,44.041-25.357,60.123c-16.677,14.903-38.52,17.238-57.643,5.448
			c-7.116-4.387-13.308-4.227-20.393,0.139c-20.271,12.493-44.809,8.498-61.251-9.192c-18.355-19.749-23.745-43.291-20.642-69.31
			c2.112-17.709,9.098-33.266,21.826-45.982c2.343-2.341,4.782-4.917,7.693-6.282c4.792-2.247,5.839-6.068,6.808-10.661
			c3.718-17.623,11.741-32.798,26.266-44.039c19.256-14.903,45.072-13.702,63.048,3.033c12.366,11.512,19.788,25.755,22.628,42.341
			c0.731,4.269,2.837,6.728,6.425,9.245c17.191,12.059,25.816,29.468,29.478,49.683
			C315.882,463.314,316.261,468.456,316.073,473.679z"/>
		<path fill="#F0CCB2" d="M266.973,252.882c-0.5,16.869-4.818,31.686-16.164,43.62c-16.749,17.618-41.516,16.709-57.41-1.777
			c-19.345-22.5-18.856-60.905,1.055-82.845c17.907-19.732,45.04-17.773,60.659,4.205
			C263.136,227.372,266.377,240.025,266.973,252.882z"/>
		<path fill="#F0CCB2" d="M172.137,319.191c0.171,15.23-3.743,28.357-12.695,39.831c-16.769,21.496-45.079,21.426-61.868-0.131
			c-18.034-23.156-17.015-60.063,2.903-81.67c17.343-18.814,43.711-16.837,59.541,3.958
			C168.7,292.584,172.389,305.692,172.137,319.191z"/>
		<path fill="#F0CCB2" d="M273.811,321.877c-0.07-18.604,4.616-33.417,16.238-45.353c17.408-17.877,44.267-15.615,58.871,4.625
			c15.829,21.94,16.441,53.588,1.125,75.476c-10.741,15.35-27.426,22.481-44.736,16.356c-12.193-4.315-19.998-13.401-25.372-24.728
			C275.678,339.277,273.371,329.79,273.811,321.877z"/>
		<path fill="#F0CCB2" d="M175.343,634.852c-8.546-0.078-15.455-8.105-15.206-17.665c0.265-10.17,6.476-16.506,16.055-16.376
			c8.528,0.116,14.734,7.215,14.64,16.746C190.734,627.573,184.143,634.933,175.343,634.852z"/>
		<path fill="#FEFEFE" d="M156.813,473.114c1.163-17.711,7.256-32.155,25.507-38.893c7.791-2.876,9.431-9.763,9.617-17.085
			c0.242-9.541,2.373-18.548,7.936-26.354c6.523-9.153,15.346-14.521,26.935-12.704c11.313,1.774,18.562,9.135,23.091,19.279
			c2.876,6.443,4.157,13.246,4.11,20.364c-0.061,9.264,3.464,14.012,11.993,17.446c13.788,5.552,20.484,16.781,22.56,30.638
			c2.221,14.832-1.035,28.483-12.329,39.361c-8.099,7.8-21.379,9.5-30.949,3.577c-13.968-8.645-28.084-9.832-42.395-1.167
			c-19.574,11.852-36.814-0.594-42.821-16.791C157.97,485.135,156.361,479.371,156.813,473.114z"/>
		<path fill="#FEFEFE" d="M239.994,254.143c-0.214,5.915-1.993,11.301-5.945,15.55c-9.131,9.818-22.839,5.237-26.918-8.859
			c-2.324-8.032-0.977-15.444,4.01-22.163c6.073-8.183,17.819-8.093,23.788,0.183C238.23,243.43,239.882,248.561,239.994,254.143z"
			/>
		<path fill="#FEFEFE" d="M144.954,319.763c0.597,5.871-1.198,10.781-4.573,15.154c-5.981,7.751-16.406,8.108-22.986,0.837
			c-5.844-6.458-7.297-19.544-3.032-27.293c3.998-7.264,10.536-10.986,16.926-9.637c6.766,1.428,12.88,8.874,13.644,16.711
			C145.078,317.018,144.954,318.528,144.954,319.763z"/>
		<path fill="#FEFEFE" d="M333.956,319.373c0.451,5.714-1.384,10.583-4.597,15.063c-5.749,8.015-15.94,8.753-22.798,1.597
			c-7.357-7.676-7.778-23.416-0.84-31.389c7.829-8.997,19.181-7.917,25.218,2.442C333.164,310.905,334.393,315.016,333.956,319.373z
			"/>
	</g>
</g>
</svg>
