<?xml version="1.0" encoding="utf-8"?>
<!-- Generator: Adobe Illustrator 17.0.0, SVG Export Plug-In . SVG Version: 6.00 Build 0)  -->
<!DOCTYPE svg PUBLIC "-//W3C//DTD SVG 1.1//EN" "http://www.w3.org/Graphics/SVG/1.1/DTD/svg11.dtd">
<svg version="1.1" id="Layer_1" xmlns="http://www.w3.org/2000/svg" xmlns:xlink="http://www.w3.org/1999/xlink" x="0px" y="0px"
	 width="611.032px" height="684.998px" viewBox="0 0 611.032 684.998" enable-background="new 0 0 611.032 684.998"
	 xml:space="preserve">
<g>
	<g>
		<path fill="#FEFEFE" d="M308.961,1c99.302,0,198.603,0.02,297.905-0.087c3.296-0.004,4.16,0.485,4.159,4.027
			c-0.112,225.261-0.114,450.523,0.007,675.784c0.002,3.768-0.971,4.275-4.416,4.273c-200.436-0.094-400.872-0.094-601.308,0
			c-3.444,0.002-4.418-0.505-4.416-4.273C1.013,455.63,1.012,230.535,0.897,5.44c-0.002-3.883,1.016-4.533,4.66-4.529
			C104.025,1.022,202.494,1,300.962,1c0.311,2.74-1.986,3.671-3.605,4.918c-35.12,27.024-70.229,54.062-105.216,81.258
			c-36.695,28.524-73.521,56.879-110.318,85.27c-23.605,18.213-47.162,36.489-70.735,54.742c-9.155,7.089-9.953,12.281-3.426,21.655
			c11.517,16.542,22.682,33.327,34.427,49.71c5.708,7.963,11.063,8.893,18.987,3.372c2.188-1.524,4.236-3.26,6.509-4.639
			c3.188-1.934,5.036-1.063,5.628,2.561c0.377,2.306,0.186,4.657,0.186,6.988c0.005,119.461,0.004,238.921,0.005,358.382
			c0,1.999-0.063,4.001,0.041,5.997c0.313,5.99,4.189,10.215,10.179,11.097c1.985,0.292,3.992,0.187,5.99,0.187
			c144.119,0.003,288.238,0.003,432.358,0.001c1.832,0,3.669,0.075,5.495-0.112c5.791-0.592,9.426-3.877,10.637-9.599
			c0.592-2.798,0.409-5.642,0.409-8.471c0.007-119.294-0.003-238.588,0.053-357.882c0.002-3.209-1.476-7.554,1.699-9.314
			c3.41-1.891,5.782,2.307,8.381,4.055c9.731,6.545,14.122,5.821,21.105-3.921c11.452-15.978,22.366-32.329,33.556-48.488
			c6.406-9.251,5.625-14.451-3.14-21.337c-31.829-25.006-63.986-49.59-96.058-74.283c-45.143-34.756-90.026-69.848-135.211-104.548
			c-18.762-14.408-37.321-29.081-56.222-43.309C311.171,4.159,308.904,3.542,308.961,1z"/>
		<path fill="#F0CCB2" d="M308.961,1c22.009,16.842,44.057,33.633,66.018,50.537c31.979,24.615,63.916,49.285,95.832,73.981
			c28.757,22.252,57.438,44.601,86.198,66.849c15.231,11.782,30.573,23.42,45.832,35.165c6.836,5.262,8.106,12.603,3.193,19.777
			c-12.386,18.086-24.867,36.107-37.399,54.091c-4.499,6.456-11.89,7.405-18.253,2.616c-2.52-1.897-5.111-3.703-7.566-5.68
			c-2.137-1.721-2.873-1.052-2.857,1.4c0.008,1.333-0.003,2.666-0.003,3.999c0,121.478-0.01,242.956,0.025,364.433
			c0.002,6.46-1.573,11.822-8.001,14.744c-1.904,0.865-3.826,1.006-5.835,1.006c-146.806-0.006-293.613,0-440.419-0.017
			c-8.944-0.001-13.809-5.34-13.81-15.025c-0.009-121.478-0.001-242.956-0.061-364.433c-0.001-2.376,1.375-5.677-0.957-6.969
			c-2.362-1.309-3.748,2.054-5.535,3.331c-13.028,9.303-16.779,8.966-26.19-4.156c-11.712-16.331-23.049-32.933-34.406-49.515
			c-4.765-6.957-3.542-14.268,3.118-19.407c23.917-18.457,47.951-36.764,71.842-55.256c36.373-28.153,72.622-56.466,109.002-84.609
			c28.244-21.849,56.631-43.513,84.908-65.32c9.184-7.082,18.22-14.356,27.324-21.541C303.629,1,306.295,1,308.961,1z"/>
		<path fill="#FEFEFE" d="M119.51,258.805c10.868-8.442,21.729-16.894,32.606-25.325c22.173-17.186,44.334-34.389,66.54-51.531
			c18.923-14.608,37.915-29.126,56.854-43.714c8.682-6.688,17.404-13.33,25.909-20.238c2.967-2.409,5.029-2.389,8.058-0.029
			c23.048,17.959,46.248,35.724,69.365,53.595c28.372,21.934,56.698,43.926,85.065,65.866
			c15.494,11.983,30.999,23.954,46.577,35.827c3.166,2.413,4.528,5.095,4.523,9.242c-0.119,105.308-0.094,210.616-0.095,315.924
			c0,6.543-0.004,6.549-6.388,6.549c-96.31,0.001-192.621-0.001-288.931,0.003c-9.055,0-13.328,2.598-15.641,9.449
			c-2.721,8.061,2.774,16.62,11.255,17.447c1.651,0.161,3.33,0.05,4.996,0.05c96.144,0.001,192.287,0.039,288.431-0.108
			c4.932-0.008,6.914,1.002,6.385,6.261c-0.497,4.949-0.257,9.993-0.054,14.984c0.128,3.134-1.12,4.247-4.088,3.925
			c-0.988-0.107-1.998-0.016-2.997-0.016c-134.634,0-269.269,0.004-403.904-0.01c-7.745-0.001-7.012,0.836-7.013-6.901
			c-0.01-118.805-0.007-237.61-0.005-356.415c0-6.719,0.005-6.722,6.707-6.723c95.311-0.001,190.621,0.002,285.932-0.004
			c10.126-0.001,15.421-4.669,15.41-13.514c-0.01-7.803-4.535-12.705-12.412-13.37c-1.49-0.126-2.998-0.037-4.497-0.037
			c-87.646-0.001-175.291-0.001-262.937-0.001c-1.771,0-3.543,0-5.314,0C119.736,259.596,119.623,259.2,119.51,258.805z"/>
		<path fill="#FEFEFE" d="M305.665,84.977c-3.145,0.472-6.039,1.425-8.646,3.453c-24.11,18.758-48.263,37.462-72.413,56.169
			c-26.379,20.434-52.753,40.876-79.159,61.274c-17.735,13.699-35.528,27.323-53.285,40.993
			c-11.049,8.506-22.129,16.973-33.085,25.598c-2.58,2.031-3.961,2.465-6.093-0.791c-5.821-8.892-11.998-17.558-18.277-26.136
			c-2.092-2.858-1.678-4.397,1.023-6.467c36.764-28.168,73.488-56.39,110.16-84.678c39.709-30.63,79.363-61.33,119.021-92.025
			c12.477-9.658,24.932-19.345,37.296-29.147c2.397-1.901,4.095-1.888,6.515-0.012c43.972,34.087,87.993,68.11,132.027,102.117
			c30.349,23.439,60.74,46.823,91.098,70.25c14.458,11.157,28.842,22.413,43.362,33.489c2.702,2.061,3.117,3.61,1.022,6.473
			c-6.278,8.578-12.519,17.206-18.25,26.151c-2.531,3.951-4.225,2.063-6.467,0.337c-13.023-10.026-26.052-20.043-39.07-30.075
			c-31.818-24.521-63.655-49.017-95.439-73.583c-34.283-26.498-68.531-53.043-102.734-79.645
			C311.659,86.688,308.826,85.644,305.665,84.977z"/>
		<path fill="#F0CCB2" d="M305.526,584.867c-13.83,0.001-27.66-0.088-41.489,0.019c-27.901,0.216-53.277-7.53-74.699-25.528
			c-21.341-17.93-34.65-40.784-38.44-68.836c-2.55-18.875-0.052-37.178,6.244-54.875c2.48-6.97,0.483-13.107-0.699-19.435
			c-4.243-22.706-7.397-45.52-7.485-68.645c-0.09-23.54,18.942-41.687,42.43-40.531c7.509,0.37,14.521,3.427,21.658,5.552
			c17.069,5.084,33.643,11.562,49.864,18.907c2.888,1.308,5.492,1.52,8.629,0.852c22.552-4.806,45.203-4.959,67.708,0.043
			c5.455,1.213,9.417-1.103,13.688-3.008c19.633-8.76,39.854-15.863,60.624-21.308c20.4-5.348,42.134,8.414,47.354,29.487
			c1.999,8.069,1.427,16.286,0.794,24.355c-1.075,13.699-2.326,27.413-4.763,40.969c-1.349,7.5-2.499,15.047-4.186,22.471
			c-0.672,2.957-0.407,5.488,0.534,8.213c5.359,15.52,8.443,31.435,7.633,47.921c-0.966,19.675-6.818,37.725-17.95,54.107
			c-11.386,16.755-25.964,29.684-44.241,38.446c-14.615,7.006-30.141,10.344-46.221,10.739
			C336.858,585.166,321.189,584.866,305.526,584.867z"/>
		<path fill="#F0CCB3" d="M157.954,618.383c0.02-7.32,5.354-13.25,12.003-13.343c6.885-0.097,13.104,6.407,13.005,13.599
			c-0.1,7.197-5.848,13.172-12.763,13.265C163.476,631.994,157.934,625.874,157.954,618.383z"/>
		<path fill="#F0CCB3" d="M425.903,273.195c0.068-7.489,5.824-13.409,12.798-13.164c6.66,0.234,12.18,6.261,12.219,13.342
			c0.038,6.854-6.38,13.671-12.723,13.514C431.138,286.712,425.833,280.804,425.903,273.195z"/>
		<path fill="#FEFEFE" d="M305.883,557.951c-15.825-0.002-31.661,0.386-47.472-0.083c-32.222-0.956-57.236-15.194-73.269-43.179
			c-11.31-19.742-12.947-41.226-6.456-63.152c1.271-4.294,2.423-8.678,4.249-12.742c3.936-8.755,0.027-16.982-1.33-25.323
			c-2.767-17.009-6.039-33.928-6.764-51.218c-0.187-4.456-1.021-8.895-0.896-13.398c0.285-10.288,8.743-17.09,18.634-14.508
			c17.874,4.666,35.254,10.831,52.253,18.062c1.071,0.456,2.252,0.778,3.171,1.45c11.89,8.685,24.533,5.838,37.533,3.199
			c18.174-3.689,36.337-1.896,54.165,2.782c5.05,1.325,9.319,0.51,13.867-1.659c20.6-9.824,41.919-17.761,63.998-23.582
			c10.892-2.872,19.611,3.709,19.357,14.877c-0.439,19.264-2.936,38.329-6.407,57.266c-1.344,7.333-2.848,14.636-4.326,21.944
			c-0.565,2.792,0.535,5.239,1.41,7.739c4.795,13.696,8.818,27.621,8.219,42.276c-0.748,18.302-7.032,34.657-18.869,48.783
			c-14.818,17.685-34.026,27.581-56.628,30.088c-12.016,1.333-24.292,0.338-36.451,0.377
			C317.876,557.97,311.879,557.953,305.883,557.951z"/>
		<path fill="#F0CCB2" d="M282.708,523.954c-7.614-0.02-13.163-5.026-13.679-12.342c-0.493-6.991,4.877-13.277,12.41-14.527
			c8.001-1.328,10.834-4.37,11.491-12.34c0.625-7.583,5.839-12.875,12.633-12.824c6.768,0.051,11.749,5.266,12.439,13.022
			c0.6,6.746,4.927,11.155,11.765,11.988c7.595,0.925,13.237,7.895,12.032,14.863c-1.406,8.129-8.374,12.893-16.276,11.552
			c-5.997-1.017-11.742-2.553-16.48-6.459c-2.66-2.193-4.546-1.558-6.924,0.342C296.794,521.485,289.229,523.971,282.708,523.954z"
			/>
		<path fill="#F0CCB2" d="M205.996,446.161c0.499-3.907,2.201-8.296,7.011-10.673c6.697-3.309,13.488-6.426,20.224-9.656
			c3.533-1.694,6.838-0.627,10.051,0.844c5.735,2.626,11.439,5.322,17.107,8.088c5.154,2.515,8.986,8.832,8.438,13.65
			c-0.659,5.793-4.911,10.764-10.278,12.174c-3.681,0.967-7.207,0.013-9.962-2.009c-7.906-5.802-15.207-4.913-23.204,0.061
			C215.312,464.906,205.799,456.804,205.996,446.161z"/>
		<path fill="#F0CCB2" d="M404.961,446.367c-0.048,10.561-8.989,17.583-16.655,13.243c-10.142-5.742-18.817-6.088-28.854,0.041
			c-5.988,3.656-13.181-0.175-15.92-6.617c-2.93-6.893-0.154-14.632,6.745-18.123c5.922-2.996,11.964-5.758,17.99-8.543
			c3.834-1.772,7.534-1.715,11.434,0.351c5.713,3.027,11.631,5.679,17.525,8.352C402.812,437.603,404.619,442.286,404.961,446.367z"
			/>
	</g>
</g>
</svg>
