<?xml version="1.0" encoding="utf-8"?>
<!-- Generator: Adobe Illustrator 17.0.0, SVG Export Plug-In . SVG Version: 6.00 Build 0)  -->
<!DOCTYPE svg PUBLIC "-//W3C//DTD SVG 1.1//EN" "http://www.w3.org/Graphics/SVG/1.1/DTD/svg11.dtd">
<svg version="1.1" id="Layer_1" xmlns="http://www.w3.org/2000/svg" xmlns:xlink="http://www.w3.org/1999/xlink" x="0px" y="0px"
	 width="629.016px" height="483.034px" viewBox="0 0 629.016 483.034" enable-background="new 0 0 629.016 483.034"
	 xml:space="preserve">
<g>
	<g>
		<path fill="#F0CCB2" d="M1,228.971c0-42.995,0-85.989,0-128.984c1.03-1.736,0.263-3.637,0.502-5.448
			C1.377,81.5,9.674,73.074,18.244,65.15c14.789-13.676,32.745-22.074,51.304-29.275c27.721-10.755,56.461-17.648,85.656-22.995
			c23.414-4.288,47.007-7.118,70.646-9.61c10.236-1.079,20.583-0.919,30.876-1.162c7.643-0.181,15.278-0.81,22.936-0.607
			c4.867,0,9.729,0,14.593,0c13.087,0,26.17,0,39.251,0c4.248,0,8.498,0,12.744,0c63.415,0.084,125.801,7.774,186.755,25.693
			c21.155,6.219,41.59,14.262,60.47,25.856c9.875,6.064,18.567,13.457,25.745,22.639c5.998,7.672,8.723,16.297,8.715,25.957
			c-0.032,40.153-0.193,80.308,0.077,120.46c0.103,15.376-7.285,26.747-17.952,36.383c-17.115,15.462-37.765,24.767-59.204,32.454
			c-36.699,13.159-74.735,20.576-113.242,25.725c-25.059,3.351-50.249,5.339-75.524,6.529c-9.485,0.447-18.955,0.727-28.434,0.727
			c-3.922,0-5.809,1.129-5.727,5.393c0.182,9.493,0.158,18.994,0.009,28.488c-0.063,3.978,1.621,5.226,5.395,5.169
			c9.495-0.143,18.994-0.132,28.489-0.001c3.343,0.046,5.047-1.324,6.362-4.332c8.854-20.252,24.838-30.49,46.453-32.769
			c15.995-1.687,30.443,2.171,43.013,12.187c17.757,14.15,25.332,38.541,10.548,60.535c-2.66,3.958-3.072,6.759-0.237,11.046
			c14.382,21.742,8.327,48.059-13.608,63.485c-17.631,12.4-57.456,14.07-76.142-7.441c-4.334-4.989-7.888-10.32-10.242-16.424
			c-1.19-3.087-3.056-4.331-6.372-4.325c-31.823,0.052-63.646,0.043-95.468,0.007c-3.324-0.004-5.184,1.307-6.365,4.371
			c-5.692,14.772-16.262,25.174-31.132,29.664c-23.594,7.125-50.779,4.351-67.098-17.3c-10.946-14.522-12.793-30.363-4.854-47.013
			c1.004-2.105,2.078-4.214,3.506-6.046c2.378-3.05,2.335-5.63,0.012-8.917c-7.376-10.433-9.772-22.012-7.286-34.658
			c2.167-11.024,8.129-19.69,16.577-26.58c23.75-19.37,59.121-17.04,80.378,5.003c4.23,4.387,7.441,9.43,9.553,15.098
			c1.164,3.122,2.999,4.431,6.323,4.397c9.662-0.099,19.328-0.132,28.989,0.011c3.921,0.058,5.3-1.549,5.249-5.358
			c-0.129-9.495-0.155-18.995,0.011-28.489c0.069-3.973-1.562-5.365-5.357-5.164c-13.496,0.717-26.994-0.27-40.406-1.221
			c-17.899-1.269-35.824-2.525-53.663-4.735c-20.823-2.579-41.549-5.745-62.065-10.077c-27.892-5.89-55.379-13.228-81.504-24.964
			c-14.512-6.519-28.271-14.266-40.031-25.107C8.489,250.048,1.712,241.145,1,228.971z"/>
		<path fill="#FEFEFE" d="M1,228.971c3.375,7.724,6.197,15.57,12.176,22.07c8.594,9.342,18.615,16.595,29.59,22.579
			c27.281,14.877,56.823,23.387,86.915,30.282c19.943,4.57,40.083,8.061,60.35,10.737c14.819,1.957,29.713,3.276,44.623,4.505
			c21.074,1.737,42.145,2.941,63.284,2.841c3.093-0.015,4.027,1.224,4,4.168c-0.106,11.497-0.113,22.995,0.004,34.492
			c0.031,3.111-0.843,4.521-4.226,4.479c-11.496-0.144-22.996-0.143-34.491,0.008c-2.891,0.038-4.003-1.198-4.958-3.707
			c-7.858-20.648-23.447-31.095-44.917-33.509c-18.328-2.06-34.253,3.241-47.21,16.42c-15.501,15.768-16.429,39.712-2.339,56.781
			c1.873,2.269,1.864,3.499,0.058,5.83c-21.808,28.165-5.265,61.829,25.052,71.262c15.759,4.903,30.974,3.713,45.527-3.73
			c11.183-5.72,19.606-14.372,23.577-26.556c1.27-3.897,3.178-5.018,7.139-5c32.493,0.151,64.986,0.141,97.479,0.011
			c3.87-0.015,5.594,1.001,7.072,4.932c7.511,19.973,23.202,30.24,43.507,32.756c18.513,2.294,35.24-2.799,48.609-16.857
			c14.749-15.509,16.279-38.202,3.081-55.172c-2.457-3.16-2.767-5.056-0.231-8.46c16.706-22.417,10.09-50.853-14.899-65.184
			c-21.067-12.082-48.323-9.67-66.71,6.051c-6.44,5.506-11.354,12.213-13.674,20.465c-0.786,2.797-2.088,3.681-4.875,3.653
			c-11.496-0.118-22.995-0.115-34.492-0.008c-3.002,0.028-4.123-1.031-4.094-4.069c0.111-11.663,0.113-23.329-0.01-34.992
			c-0.032-3.058,1.115-4.069,4.096-4.071c11.649-0.006,23.285-0.181,34.931-0.905c22.061-1.37,44.069-3.048,66.028-5.721
			c19.494-2.372,38.861-5.4,58.049-9.434c30.843-6.485,61.212-14.708,89.541-28.924c15.22-7.638,29.563-16.615,39.836-30.853
			c5.47-7.581,8.36-15.971,8.395-25.14c0.154-39.325,0.15-78.65,0.021-117.975c-0.048-14.643-7.304-25.928-17.691-35.557
			c-14.931-13.841-32.889-22.508-51.6-29.672c-35.764-13.693-72.955-21.616-110.789-27.001c-22.888-3.258-45.807-5.882-68.908-6.929
			c-10.293-0.467-20.57-1.282-30.854-1.939c-0.653-0.299-0.659-0.609-0.017-0.931c92.655,0,185.31,0.024,277.965-0.096
			c3.424-0.004,4.097,0.672,4.094,4.095c-0.109,157.98-0.109,315.96,0,473.94c0.002,3.423-0.67,4.096-4.094,4.094
			c-206.641-0.105-413.281-0.105-619.922,0c-3.422,0.002-4.101-0.669-4.096-4.094C1.027,395.618,1,312.294,1,228.971z"/>
		<path fill="#FEFEFE" d="M278.953,1.95c-37.354,1.937-74.619,4.666-111.574,10.842c-33.546,5.607-66.602,13.026-98.367,25.402
			c-18.227,7.101-35.754,15.644-50.275,29.095c-8.127,7.528-14.989,16.104-16.797,27.61c-0.248,0.711-0.561,0.74-0.94,0.09
			C1,64.992,1.073,34.995,0.9,5C0.88,1.573,1.576,0.9,5,0.904C96.321,1.024,187.643,1,278.965,1
			C279.605,1.325,279.601,1.642,278.953,1.95z"/>
		<path fill="#F9EAE0" d="M333.989,1.924c-13.353-0.003-26.707-0.007-40.06-0.01c-0.382-0.218-0.503-0.425-0.366-0.624
			c0.133-0.193,0.266-0.29,0.401-0.29c13.332,0,26.663,0,39.995,0c0.399,0.192,0.535,0.393,0.412,0.603
			C334.246,1.816,334.119,1.924,333.989,1.924z"/>
		<path fill="#FCF6F1" d="M293.963,1c-0.004,0.305-0.015,0.61-0.034,0.914c-4.992,0.012-9.984,0.024-14.976,0.036
			c0.007-0.317,0.011-0.634,0.012-0.95C283.965,1,288.964,1,293.963,1z"/>
		<path fill="#FCF6F1" d="M333.989,1.924c-0.018-0.308-0.028-0.616-0.03-0.924c4.333,0,8.666,0,12.998,0
			c0.003,0.311,0.008,0.621,0.017,0.932C342.645,1.928,338.317,1.926,333.989,1.924z"/>
		<path fill="#F4DAC7" d="M1,94.988c0.313-0.035,0.627-0.064,0.94-0.089C1.904,96.646,2.452,98.501,1,99.987
			C1,98.321,1,96.655,1,94.988z"/>
		<path fill="#FEFEFE" d="M267.356,299.831c-8.123-0.357-15.765-0.399-23.349-1.086c-15.546-1.409-31.105-2.826-46.58-4.84
			c-41.644-5.42-82.765-13.254-121.947-29.004c-15.019-6.037-29.387-13.239-41.155-24.869c-6.233-6.159-9.136-13.384-9.163-21.892
			c-0.072-22.825-0.025-45.65-0.023-68.475c0-2.002,0.119-3.983,1.409-6.106c16.285,11.584,34.27,19.632,52.984,26.236
			c22.646,7.992,45.894,13.588,69.424,18.229c21.54,4.249,43.282,7.073,65.058,9.6c13.36,1.551,26.806,2.468,40.238,3.266
			c30.276,1.798,60.598,1.52,90.896,1.003c29.253-0.499,58.389-2.953,87.436-6.668c26.082-3.335,51.96-7.626,77.442-14.115
			c32.054-8.162,63.386-18.151,90.93-37.388c1.789,1.351,0.989,3.153,0.993,4.651c0.059,23.658-0.257,47.321,0.164,70.972
			c0.218,12.247-6.701,19.845-15.237,26.557c-13.501,10.617-29.138,17.252-45.159,23.003c-34.288,12.309-69.776,19.353-105.79,24.18
			c-21.256,2.849-42.536,5.271-63.985,6.004c-2.483,0.085-4.957,0.503-7.432,0.795c-3.687,0.436-4.61-0.71-2.472-3.984
			c3.834-5.871,5.212-12.521,5.84-19.373c0.091-0.991,0.041-1.999-0.002-2.997c-0.36-8.382-0.331-7.981,8.493-8.714
			c16.551-1.374,33.087-3.021,49.577-4.997c20.634-2.472,41.096-6.058,61.337-10.824c2.428-0.572,4.829-1.257,7.236-1.911
			c6.375-1.732,10.115-6.664,8.964-11.802c-1.34-5.981-8.027-10.316-14.209-8.897c-15.067,3.457-30.154,6.799-45.444,9.139
			c-17.738,2.714-35.51,5.125-53.413,6.537c-10.441,0.824-20.868,1.727-31.347,2.019c-3.248,0.091-5.739-0.929-8.183-2.884
			c-22.902-18.328-53.556-17.699-76.069,1.503c-1.001,0.853-1.864,1.888-3.408,1.802c-10.625-0.593-21.279-0.851-31.871-1.798
			c-14.554-1.301-29.07-3.049-43.586-4.742c-5.771-0.673-11.514-1.626-17.242-2.616c-2.883-0.498-5.68-0.497-8.32,0.724
			c-4.034,1.865-7.021,4.974-7.109,9.484c-0.088,4.504,2.555,7.741,6.821,9.54c6.411,2.704,13.336,2.742,20.038,3.663
			c22.057,3.032,44.174,5.636,66.464,6.313c1.975,0.06,4.096-0.089,4.092,3.004C260.678,284.647,260.709,284.647,267.356,299.831z"
			/>
		<path fill="#FEFEFE" d="M316.073,23.058c19.875-0.645,41.815,0.673,63.721,2.124c40.011,2.651,79.752,7.689,118.769,17.112
			c27.857,6.728,55.301,14.944,80.057,30.075c6.122,3.742,11.809,8.094,16.584,13.513c9.035,10.252,9.145,21.635,0.248,31.942
			c-5.39,6.245-12.068,10.908-19.042,15.2c-1.469,0.904-2.708,0.85-4.199,0.15c-31.606-14.852-65.253-22.743-99.371-28.948
			c-24.206-4.402-48.606-7.359-73.131-9.327c-17.9-1.437-35.832-2.217-53.76-3.171c-17.824-0.948-35.649-1.115-53.421-0.463
			c-27.72,1.017-55.429,2.409-83.064,5.38c-32.45,3.49-64.575,8.57-96.229,16.445C94,117.876,75.139,123.929,57.186,132.457
			c-2.748,1.305-4.649,1.209-7.281-0.344c-6.819-4.023-12.799-8.97-18.046-14.827c-8.188-9.139-8.039-21.629,0.152-30.789
			c6.758-7.558,14.971-13.132,23.777-17.972c19.692-10.823,40.907-17.558,62.459-23.402c25.398-6.887,51.272-11.416,77.315-14.839
			c20.09-2.641,40.295-4.281,60.549-5.465C275.389,23.693,294.652,22.851,316.073,23.058z"/>
		<path fill="#FEFEFE" d="M80.175,146.473c18.619-7.316,36.864-12.307,55.396-16.446c26.8-5.985,53.919-10.01,81.193-12.719
			c16.682-1.657,33.454-2.683,50.227-3.565c24.481-1.288,48.952-0.921,73.417-0.655c27.595,0.299,55.082,2.632,82.529,5.678
			c30.298,3.363,60.205,8.649,89.707,16.229c11.593,2.978,23.003,6.608,34.629,11.349c-3.66,2.481-7.489,3.387-11.104,4.614
			c-25.577,8.685-51.825,14.642-78.461,18.974c-19.189,3.121-38.474,5.347-57.832,7.254c-35.675,3.513-71.416,4.243-107.19,3.634
			c-24.922-0.424-49.793-2.025-74.629-4.552c-26.829-2.729-53.423-6.692-79.753-12.379c-18.222-3.936-36.149-9.048-53.741-15.266
			C83.338,148.189,82.21,147.48,80.175,146.473z"/>
		<path fill="#FEFEFE" d="M207.456,348.895c16.566,0.045,27.52,10.364,28.529,26.878c0.279,4.562,2.308,7.862,6.693,9.612
			c3.002,1.198,6.075,1.535,9.281,1.532c41.312-0.036,82.624-0.101,123.936,0.029c10.683,0.034,16.391-4.649,16.199-14.791
			c-0.168-8.859,7.272-18.998,21.42-22.583c12.775-3.237,27.934,3.147,33.583,14.649c4.682,9.532,1.502,22.359-7.106,28.662
			c-12.256,8.974-12.335,13.493-0.395,22.447c14.255,10.689,12.539,31.066-3.402,40.394c-12.79,7.484-29.94,4.322-39.309-7.217
			c-3.268-4.024-4.962-8.538-5.021-13.77c-0.098-8.719-4.212-12.822-12.945-12.83c-43.311-0.042-86.622-0.042-129.933-0.001
			c-8.949,0.008-12.668,3.816-13.03,12.729c-0.451,11.115-6.841,18.097-16.406,22.448c-16.972,7.72-37.306-1.576-40.867-18.755
			c-2.156-10.402,2.885-18.076,10.853-23.994c9.638-7.159,9.759-12.934,0.046-20.227c-12.267-9.211-14.903-22.053-6.875-33.496
			C187.832,353.303,197.204,348.867,207.456,348.895z"/>
		<path fill="#FEFEFE" d="M313.736,249.975c12.428-0.663,21.73,4.736,27.332,15.582c5.584,10.811,0.88,23.338-10.755,30.845
			c-13.786,8.895-34.75,4.413-42.64-9.534c-10.31-18.224,5.693-35.052,20.572-36.863
			C310.05,249.785,311.904,249.975,313.736,249.975z"/>
		<path fill="#F0CCB3" d="M148.546,238.089c-0.117,5.686-6.058,10.78-12.356,10.593c-6.478-0.193-12.22-5.385-12.077-10.919
			c0.142-5.505,6.212-10.725,12.401-10.666C142.804,227.157,148.661,232.508,148.546,238.089z"/>
		<path fill="#F0CCB2" d="M319.425,44.954c15.899-0.544,34.728-0.089,53.47,1.264c21.352,1.541,42.756,2.923,63.924,6.47
			c5.569,0.933,11.193,1.537,16.76,2.485c3.683,0.627,7.077,1.991,9.157,5.43c4.082,6.752-0.489,14.825-8.797,15.422
			c-7.215,0.519-14.231-1.274-21.285-2.255c-15.142-2.107-30.326-3.657-45.558-4.877c-29.542-2.366-59.141-3.532-88.748-2.67
			c-24.399,0.71-48.79,1.734-73.121,4.415c-21.821,2.405-43.488,5.566-65.063,9.479c-6.209,1.126-12.319,2.79-18.488,4.143
			c-1.773,0.389-3.593,0.763-5.395,0.781c-6.373,0.063-11.454-4.028-12.16-9.609c-0.613-4.844,3.322-9.804,9.351-11.295
			c14.846-3.67,29.835-6.669,44.938-9.078c24.786-3.954,49.719-6.468,74.757-8.27C274.27,45.27,295.373,44.843,319.425,44.954z"/>
		<path fill="#F0CCB3" d="M491.622,84.028c-6.979,0.05-12.542-4.504-12.505-10.238c0.039-6.014,5.236-10.655,12.074-10.782
			c6.597-0.122,12.359,4.651,12.501,10.356C503.84,79.321,498.569,83.977,491.622,84.028z"/>
	</g>
</g>
</svg>
