<?xml version="1.0" encoding="utf-8"?>
<!-- Generator: Adobe Illustrator 17.0.0, SVG Export Plug-In . SVG Version: 6.00 Build 0)  -->
<!DOCTYPE svg PUBLIC "-//W3C//DTD SVG 1.1//EN" "http://www.w3.org/Graphics/SVG/1.1/DTD/svg11.dtd">
<svg version="1.1" id="Layer_1" xmlns="http://www.w3.org/2000/svg" xmlns:xlink="http://www.w3.org/1999/xlink" x="0px" y="0px"
	 width="233.988px" height="103.317px" viewBox="0 0 233.988 103.317" enable-background="new 0 0 233.988 103.317"
	 xml:space="preserve">
<g>
	<g>
		<path fill="#FFFFFF" d="M1.009,35.743c0-11.767,0-23.533,0-35.3c77.66,0,155.32,0,232.98,0c0,34.291,0,68.583,0,102.874
			c-77.66,0-155.32,0-232.979,0c0-11.767,0-23.533,0-35.3c2.517,0.047,5.034,0.135,7.551,0.135
			c55.942,0.008,111.883,0.006,167.825,0.006c2.104,0,4.208,0,6.924,0c0,10.932,0,21.067,0,31.601
			c16.361-16.523,32.201-32.52,47.216-47.683C215.189,36.5,199.477,20.542,183.147,3.954c0,10.712,0,20.985,0,31.647
			c-2.773,0-4.768,0-6.763,0c-24.359,0-48.718-0.017-73.077,0.004C69.208,35.636,35.108,35.696,1.009,35.743z"/>
		<path d="M1.009,35.743c34.1-0.047,68.199-0.107,102.299-0.137c24.359-0.022,48.718-0.004,73.077-0.004c1.995,0,3.99,0,6.763,0
			c0-10.663,0-20.935,0-31.647c16.33,16.587,32.042,32.546,47.377,48.122c-15.015,15.163-30.855,31.16-47.216,47.683
			c0-10.535,0-20.67,0-31.601c-2.716,0-4.82,0-6.924,0c-55.942,0-111.883,0.002-167.825-0.006c-2.517,0-5.034-0.088-7.551-0.135
			C1.009,57.259,1.009,46.501,1.009,35.743z"/>
	</g>
</g>
</svg>
