<?xml version="1.0" encoding="utf-8"?>
<!-- Generator: Adobe Illustrator 17.0.0, SVG Export Plug-In . SVG Version: 6.00 Build 0)  -->
<!DOCTYPE svg PUBLIC "-//W3C//DTD SVG 1.1//EN" "http://www.w3.org/Graphics/SVG/1.1/DTD/svg11.dtd">
<svg version="1.1" id="Layer_1" xmlns="http://www.w3.org/2000/svg" xmlns:xlink="http://www.w3.org/1999/xlink" x="0px" y="0px"
	 width="231.971px" height="101.987px" viewBox="0 0 231.971 101.987" enable-background="new 0 0 231.971 101.987"
	 xml:space="preserve">
<g>
	<g>
		<path fill="#FFFFFF" d="M231.971,101.987c-76.99,0-153.981,0-230.971,0C1,68.325,1,34.662,1,1c76.99,0,153.981,0,230.971,0
			C231.971,34.662,231.971,68.325,231.971,101.987z M50.298,98.769c0-3.142-0.057-5.455,0.01-7.765
			c0.225-7.767,0.495-15.532,0.747-23.298c7.781-0.192,15.562-0.541,23.344-0.549c49.801-0.05,99.602-0.026,149.402-0.026
			c2.085,0,4.17,0,6.288,0c0-11.162,0-21.532,0-32.276c-2.584,0-4.731,0-6.879,0c-54.964,0-109.928,0-164.892,0
			c-1.332,0-2.677-0.117-3.995,0.019c-3.038,0.313-4.144-0.964-4.066-3.997c0.156-5.992,0.042-11.991,0.04-17.987
			c-0.001-3.034,0-6.068,0-9.892C33.75,19.687,18.099,35.471,2.85,50.85C18.273,66.426,33.907,82.215,50.298,98.769z"/>
		<path d="M50.298,98.769C33.907,82.215,18.273,66.426,2.85,50.85c15.249-15.379,30.9-31.163,47.448-47.852
			c0,3.824-0.001,6.858,0,9.892c0.002,5.996,0.115,11.995-0.04,17.987c-0.079,3.034,1.028,4.311,4.066,3.997
			c1.318-0.136,2.663-0.019,3.995-0.019c54.964,0,109.928,0,164.892,0c2.148,0,4.295,0,6.879,0c0,10.744,0,21.115,0,32.276
			c-2.118,0-4.203,0-6.288,0c-49.801,0-99.602-0.025-149.402,0.026c-7.781,0.008-15.563,0.357-23.344,0.549
			c-0.253,7.766-0.522,15.531-0.747,23.298C50.242,93.314,50.298,95.627,50.298,98.769z"/>
	</g>
</g>
</svg>
