<?xml version="1.0" encoding="utf-8"?>
<!-- Generator: Adobe Illustrator 17.0.0, SVG Export Plug-In . SVG Version: 6.00 Build 0)  -->
<!DOCTYPE svg PUBLIC "-//W3C//DTD SVG 1.1//EN" "http://www.w3.org/Graphics/SVG/1.1/DTD/svg11.dtd">
<svg version="1.1" id="Layer_1" xmlns="http://www.w3.org/2000/svg" xmlns:xlink="http://www.w3.org/1999/xlink" x="0px" y="0px"
	 width="720.976px" height="582.016px" viewBox="0 0 720.976 582.016" enable-background="new 0 0 720.976 582.016"
	 xml:space="preserve">
<g>
	<g>
		<path fill="#FEFEFE" d="M1,135.983C1,92.165,1.034,48.346,0.923,4.528C0.916,1.629,1.406,0.912,4.469,0.913
			c237.585,0.095,475.17,0.096,712.755-0.002c3.28-0.001,3.752,0.933,3.751,3.901c-0.073,191.101-0.073,382.202,0,573.303
			c0.001,2.969-0.473,3.902-3.751,3.9c-237.585-0.097-475.17-0.096-712.755-0.001c-3.065,0.001-3.553-0.718-3.545-3.616
			C1.033,534.247,1,490.096,1,445.944c2.891,0.435,2.851,2.922,3.207,4.906c4.493,25.008,15.024,47.198,31.276,66.646
			c24.03,28.756,54.94,46.337,90.889,55.797c19.414,5.109,39.158,5.994,59.02,5.115c12.01-0.531,23.794-3.093,35.395-6.178
			c24.332-6.471,46.283-17.686,65.723-33.744c3.338-2.757,6.349-5.886,9.87-8.446c2.253-1.638,4.25-1.734,6.241,0.216
			c19.366,18.971,44.208,26.682,69.412,33.429c26.793,7.172,54.211,10.522,81.798,13.035c26.949,2.456,53.924,2.066,80.875,1.585
			c16.433-0.293,32.841-2.328,49.21-4.372c25.195-3.147,49.991-7.866,74.161-15.743c14.654-4.776,28.666-10.845,41.254-19.862
			c4.354-3.119,8.201-6.846,11.468-11.088c5.008-6.503,7.838-13.669,7.786-22.147c-0.195-32.161-0.555-64.334,0.116-96.482
			c0.352-16.906-7.275-28.573-20.164-37.812c-14.271-10.23-30.471-16.328-47.117-21.392c-24.318-7.397-49.249-11.867-74.448-14.541
			c-20.176-2.141-40.427-3.502-60.779-3.632c-31.687-0.203-63.265,0.945-94.667,5.225c-24.63,3.357-48.95,8.249-72.467,16.561
			c-7.31,2.584-8.488,1.815-8.491-5.975c-0.026-65.491,0.039-130.981-0.046-196.472c-0.024-18.626-4.346-36.457-12.48-53.095
			c-26.314-53.824-71.248-82.093-128.916-91.715c-32.722-5.46-64.779-1.281-95.665,10.742c-29.38,11.437-54.044,29.44-73.014,54.777
			C17.263,88.895,8.678,108.638,4.547,130.278c-0.374,1.961-0.493,4.006-2.002,5.558C2.065,136.26,1.55,136.308,1,135.983z"/>
		<path fill="#F0CCB2" d="M1.997,135.982c2.664-15.122,6.74-29.807,13.772-43.536c15.321-29.913,38.249-52.272,67.683-68.23
			c16.492-8.941,33.965-15.193,52.344-18.534c18.978-3.45,38.03-4.427,57.423-2.107c20.734,2.48,40.374,8.065,59.102,16.837
			c12.335,5.778,23.841,13.12,34.44,21.833c13.482,11.083,25.139,23.844,34.248,38.637c9.378,15.231,15.878,31.754,18.983,49.53
			c1.379,7.895,2.039,15.776,2.032,23.781c-0.059,64.647-0.033,129.294-0.031,193.941c0,5.935,0.129,5.921,5.696,3.944
			c20.387-7.237,41.406-11.729,62.738-15.289c40.868-6.821,82.024-7.866,123.24-6.598c23.999,0.738,47.946,3.057,71.69,7.275
			c17.661,3.137,35.086,6.995,52.172,12.425c16.731,5.317,32.9,11.984,46.47,23.323c9.643,8.058,16.147,18.058,16.014,31.648
			c-0.317,32.32-0.601,64.657,0.108,96.965c0.358,16.288-6.939,27.73-18.979,36.868c-13.363,10.142-28.702,16.386-44.655,21.434
			c-10.617,3.359-21.296,6.462-32.171,8.635c-15.423,3.081-30.987,5.359-46.615,7.385c-30.63,3.97-61.344,4.062-92.093,3.695
			c-19.748-0.235-39.371-2.297-58.997-4.619c-24.968-2.954-49.5-7.737-73.374-15.501c-18.87-6.136-37.18-13.646-51.289-28.465
			c-2.072-2.176-3.191-1.647-5.159,0.138c-10.593,9.607-21.856,18.304-34.362,25.382c-17.673,10.003-36.553,16.495-56.448,20.177
			c-34.784,6.438-68.789,3.463-101.803-9.187c-23.053-8.833-43.842-21.632-61.009-39.426C22.08,506.486,7.686,480.851,2.848,450.415
			C2.6,448.854,2.484,447.071,1,445.944c0-1,0-2,0-3c0.817-2,0.817-3.999,0-5.999c0-96.988,0-193.976,0-290.964
			c1.051-1.692,0.274-3.561,0.516-5.332C1.711,139.097,1.06,137.457,1.997,135.982z"/>
		<path fill="#F7E4D6" d="M1,436.945c1.477,2,1.577,3.999,0,5.999C1,440.945,1,438.945,1,436.945z"/>
		<path fill="#FBF3ED" d="M1.997,135.982c-0.016,1.656-0.032,3.312-0.048,4.968c-0.3,0.477-0.617,0.488-0.949,0.033
			c0-1.666,0-3.333,0-4.999C1.332,135.985,1.664,135.984,1.997,135.982z"/>
		<path fill="#F7E3D5" d="M1,140.982c0.317-0.006,0.633-0.017,0.949-0.032c-0.149,1.709,0.693,3.604-0.949,5.032
			C1,144.315,1,142.649,1,140.982z"/>
		<path fill="#FEFEFE" d="M199.456,303.899c36.316,0,72.632,0.072,108.946-0.095c4.311-0.02,5.712,0.982,5.643,5.504
			c-0.27,17.654-0.283,35.317,0.009,52.97c0.073,4.4-1.49,7.341-4.743,9.695c-12.997,9.406-18.728,21.965-18.414,38.105
			c0.506,25.977-0.151,51.977,0.321,77.956c0.132,7.283-2.152,12.71-6.759,17.877c-15.098,16.933-33.182,29.67-54.114,38.21
			c-23.51,9.592-48.227,12.75-73.318,10.539c-27.064-2.385-52.137-11.234-74.363-27.317c-28.161-20.378-46.138-47.322-52.456-81.689
			c-0.835-4.545-1.136-9.245-1.146-13.875c-0.091-40.813,0.012-81.627-0.169-122.44c-0.02-4.454,1.189-5.845,5.594-5.531
			c5.304,0.379,10.655,0.088,15.986,0.09c6.578,0.003,6.583,0.005,6.584,6.361c0.003,19.49-0.054,38.981,0.023,58.471
			c0.043,10.928,8.347,17.169,18.74,14.268c5.638-1.574,9.21-6.372,9.22-12.641c0.034-20.323,0.144-40.648-0.089-60.969
			c-0.05-4.397,1.122-5.616,5.561-5.594C126.825,303.978,163.14,303.899,199.456,303.899z"/>
		<path fill="#FEFEFE" d="M199.691,278.902c-36.153,0-72.306-0.077-108.458,0.094c-4.725,0.022-6.306-1.229-6.282-6.141
			c0.184-38.818-0.066-77.638,0.161-116.455c0.153-26.05,11.338-46.451,32.384-61.855c15.893-11.633,33.824-17.231,53.033-17.277
			c28.861-0.069,53.73,10.45,72.087,33.27c9.518,11.832,15.137,25.956,15.123,41.377c-0.01,10.514,7.321,14.851,14.464,14.759
			c8.215-0.106,14.218-6.305,13.798-14.993c-1.244-25.783-11.321-47.569-29.511-65.565c-18.162-17.969-40.255-28.117-65.426-32.252
			c-26.868-4.414-52.472-0.286-76.346,12.025c-30.251,15.599-50.286,39.756-56.435,74.037c-0.874,4.874-1.163,9.911-1.175,14.874
			c-0.092,39.485-0.137,78.97,0.059,118.454c0.024,4.738-1.427,6.022-5.917,5.736c-5.642-0.359-11.337-0.329-16.983-0.005
			c-4.099,0.235-5.388-0.999-5.366-5.238c0.171-32.487-0.023-64.975,0.155-97.462c0.066-11.961-0.765-23.929,0.83-35.896
			c2.643-19.835,9.588-37.891,21.331-54.06c17.225-23.718,40.008-40.116,67.433-49.993c13.293-4.787,27.113-7.28,41.28-8.561
			c18.326-1.658,36.138,0.503,53.655,5.268c28.966,7.879,53.388,23.044,72.723,46.326c14.024,16.886,22.907,35.967,26.378,57.565
			c0.787,4.898,1.175,9.912,1.186,14.875c0.096,40.484-0.025,80.969,0.175,121.453c0.023,4.739-1.439,5.758-5.9,5.737
			C271.997,278.829,235.843,278.902,199.691,278.902z"/>
		<path fill="#FEFEFE" d="M691.905,441.052c0,22.668,0.081,44.318-0.06,65.967c-0.033,5.095-3.713,8.592-7.291,11.409
			c-13.983,11.01-30.629,16.474-47.386,21.318c-12.728,3.679-25.751,6.303-38.875,8.341c-13.596,2.111-27.258,3.557-40.942,4.969
			c-23.072,2.381-46.186,1.873-69.297,1.83c-19.942-0.037-39.701-2.361-59.495-4.656c-19.517-2.263-38.669-6.112-57.502-11.414
			c-15.003-4.224-29.762-9.397-42.415-19.05c-6.272-4.785-9.99-10.473-9.765-18.996c0.479-18.148,0.143-36.317,0.149-54.478
			c0.002-5.476-0.011-5.427,4.666-3.032c22.235,11.387,46.013,18.043,70.421,22.615c21.842,4.091,43.822,6.902,66.054,8.328
			c21.273,1.365,42.544,2.365,63.795,1.51c24.334-0.979,48.636-2.56,72.802-6.345c22.689-3.554,44.992-8.348,66.749-15.604
			c5.972-1.992,11.681-4.794,17.453-7.354C684.428,444.873,687.776,443.086,691.905,441.052z"/>
		<path fill="#FEFEFE" d="M377.753,436.234c16.974-2.881,32.632-5.596,48.31-8.184c17.487-2.887,34.995-5.643,52.489-8.484
			c23.708-3.851,47.416-7.705,71.117-11.602c19.126-3.145,38.237-6.375,57.361-9.529c23.042-3.801,46.092-7.558,69.136-11.345
			c1.408-0.231,2.693,0.106,3.784,0.91c3.598,2.653,7.31,5.114,9.759,9.105c3.061,4.99,3.025,7.726-0.605,12.144
			c-6.543,7.962-15.285,12.725-24.521,16.597c-24.188,10.138-49.559,15.587-75.453,19.28c-18.924,2.699-37.911,3.853-56.951,5.062
			c-14.154,0.899-28.295,1.084-42.39,0.567C452.483,449.387,415.319,446.429,377.753,436.234z"/>
		<path fill="#FEFEFE" d="M630.146,369.068c-6.773,1.269-13.523,2.679-20.324,3.777c-15.699,2.534-31.436,4.837-47.134,7.382
			c-19.461,3.155-38.897,6.463-58.345,9.697c-17.162,2.854-34.321,5.727-51.491,8.537c-23.546,3.853-47.102,7.647-70.651,11.482
			c-14.884,2.424-29.848,4.469-44.602,7.526c-5.736,1.189-8.855-1.557-12.202-4.637c-7.923-7.291-7.774-13.222,0.339-20.359
			c11.93-10.494,26.556-15.608,41.318-20.322c22.675-7.241,46.084-11.202,69.62-13.954c33.091-3.87,66.409-4.359,99.65-2.973
			c26.818,1.118,53.554,3.998,79.872,9.739c4.649,1.014,9.257,2.216,13.884,3.331C630.101,368.551,630.123,368.81,630.146,369.068z"
			/>
		<path fill="#F0CCB2" d="M71.491,408.856c7.934,0.025,13.558,5.046,13.547,12.096c-0.01,7.188-5.765,12.125-14.079,12.078
			c-7.927-0.045-13.68-5.174-13.627-12.148C57.387,413.734,63.161,408.83,71.491,408.856z"/>
	</g>
</g>
</svg>
