<?xml version="1.0" encoding="utf-8"?>
<!-- Generator: Adobe Illustrator 17.0.0, SVG Export Plug-In . SVG Version: 6.00 Build 0)  -->
<!DOCTYPE svg PUBLIC "-//W3C//DTD SVG 1.1//EN" "http://www.w3.org/Graphics/SVG/1.1/DTD/svg11.dtd">
<svg version="1.1" id="Layer_1" xmlns="http://www.w3.org/2000/svg" xmlns:xlink="http://www.w3.org/1999/xlink" x="0px" y="0px"
	 width="612px" height="792px" viewBox="0 0 612 792" enable-background="new 0 0 612 792" xml:space="preserve">
<g>
	<g>
		<path fill="#F0CCB2" d="M265.987-127c27.33,0,54.66,0,81.99,0c9.231,2.829,9.491,11.057,10.921,18.455
			c0.532,2.75,0.167,5.651,0.167,8.484c0.002,47.99-0.002,95.98,0.003,143.97c0.001,7.6,0.023,7.562,7.223,9.44
			c7.904,2.061,10.883,8.269,12.467,15.394c0.973,4.377,1.354,8.85,1.342,13.381c-0.072,27.494,0.036,54.989-0.108,82.482
			c-0.025,4.821,1.184,8.466,4.866,11.852c22.428,20.623,35.825,46.875,45.943,75.057c7.785,21.684,12.758,44.069,15.999,66.851
			c1.595,11.216,2.094,22.539,2.099,33.83c0.092,183.128,0.066,366.256,0.06,549.384c0,4.848-0.205,9.663-2.687,14.049
			c-1.84,3.252-4.351,5.361-8.292,5.56c-1.493,0.075-2.987,0.172-4.481,0.172c-84.316,0.007-168.631,0-252.947,0.023
			c-5.36,0.001-10.393-0.386-13.065-6.112c-0.872-1.869-0.998-3.857-1.358-5.808c-0.422-2.284-0.808-4.586-0.629-6.935
			c0-178.969,0-357.935,0-536.898c0-3.116,0-6.237,0-9.354c-0.381-40.976,7.389-80.429,22.926-118.269
			c9.63-23.453,22.32-45.087,41.462-62.277c2.995-2.69,4.123-5.627,4.107-9.6c-0.111-27.495-0.034-54.99-0.082-82.486
			c-0.01-6.034,0.553-11.987,2.173-17.78c2.068-7.394,6.541-12.337,14.652-12.885c3.284-0.222,4.204-2.016,4.192-4.94
			c-0.022-5.332,0.001-10.665,0.001-15.997c0.004-44.992,0.023-89.985-0.029-134.977c-0.006-5.236,0.664-10.28,2.5-15.182
			C258.984-122.335,261.158-125.939,265.987-127z"/>
		<path fill="#FEFEFE" d="M165.93,902.908c0.488,2.271,0.795,4.599,1.495,6.802c2.902,9.135,5.659,11.107,15.178,11.108
			c82.323,0.002,164.645,0.001,246.968,0.001c12.113,0,17.681-5.306,18.389-17.62c0.153-2.659,0.093-5.331,0.093-7.997
			c0.003-173.478-0.106-346.955,0.086-520.433c0.043-38.904-4.671-77.022-16.547-114.067c-9.906-30.9-23.521-59.926-47.979-82.321
			c-4.623-4.234-5.856-8.36-5.809-14.166c0.229-27.994,0.107-55.992,0.099-83.988c-0.001-5.534-0.776-10.951-2.758-16.143
			c-2.471-6.474-5.952-9.218-12.802-8.919c-4.744,0.207-5.406-1.792-5.397-5.872c0.112-50.327,0.08-100.654,0.056-150.98
			c-0.001-3.152,0.158-6.304-0.537-9.452c-1.349-6.108-3.202-11.885-8.488-15.858c32.829,0,65.659,0.05,98.487-0.085
			c2.984-0.012,3.581,0.603,3.58,3.584c-0.085,347.29-0.085,694.58,0,1041.869c0.001,2.98-0.597,3.585-3.58,3.582
			c-92.655-0.1-185.31-0.1-277.965,0c-2.981,0.003-3.766-0.576-3.585-3.586c0.309-5.148,0.085-10.327,0.085-15.493
			C165.336,902.226,165.646,902.239,165.93,902.908z"/>
		<path fill="#FEFEFE" d="M265.987-127c-6.985,6.037-9,14.094-9.008,22.827c-0.049,50.954-0.096,101.909,0.076,152.863
			c0.017,4.944-1.106,6.709-6.322,6.498c-7.413-0.299-12.196,5.079-13.572,14.511c-0.67,4.59-1.174,9.204-1.155,13.898
			c0.111,28.141-0.002,56.283,0.125,84.424c0.016,3.634-1.047,5.969-3.885,8.432c-16.247,14.102-27.673,31.842-36.844,51.048
			c-10.005,20.951-16.997,42.975-21.585,65.719c-3.383,16.769-6.238,33.632-6.899,50.788c-0.153,3.978-0.642,7.944-0.977,11.915
			c-0.303,0.651-0.616,0.657-0.941,0.016c0-159.48,0.015-318.96-0.094-478.44c-0.003-3.749,0.841-4.619,4.594-4.598
			C201.662-126.927,233.825-127,265.987-127z"/>
		<path fill="#F9EDE4" d="M165.93,902.908c-0.31-0.014-0.62-0.026-0.93-0.037c0-179.311,0-358.622,0-537.933
			c0.306-0.447,0.619-0.475,0.941-0.016c0.02,18.482,0.056,36.964,0.057,55.446c0.006,159.515,0.006,319.03,0.004,478.545
			C166.001,900.245,165.955,901.577,165.93,902.908z"/>
		<path fill="#FBF5F0" d="M165.941,364.923c-0.314,0.008-0.627,0.013-0.941,0.016c0-3,0-5.999,0-8.999
			c0.314-0.004,0.629-0.009,0.942-0.015C165.941,358.923,165.941,361.923,165.941,364.923z"/>
		<path fill="#FEFEFE" d="M424.913,615.682c0,84.152,0.001,168.304-0.001,252.455c0,6.822-0.006,6.829-6.764,6.829
			c-74.154,0.002-148.307,0.002-222.461,0c-6.622,0-6.634-0.009-6.634-6.458c0.003-167.137-0.315-334.275,0.245-501.41
			c0.137-40.788,7.985-80.44,27.639-116.914c8.305-15.411,18.672-29.139,33.767-38.707c8.673-5.497,18.17-8.292,28.353-8.396
			c17.162-0.175,34.335,0.283,51.488-0.133c22.258-0.54,39.032,9.57,52.436,26.197c19.851,24.625,29.834,53.604,35.928,84.136
			c4.308,21.586,6.075,43.417,6.044,65.444C424.846,457.71,424.913,536.696,424.913,615.682z"/>
		<path fill="#FEFEFE" d="M333.107-12.506c0,20.656-0.113,41.313,0.092,61.967c0.043,4.356-1.166,5.772-5.622,5.685
			c-13.821-0.268-27.651-0.188-41.476-0.038c-3.672,0.04-5.337-0.73-5.323-4.935c0.141-42.144,0.121-84.29,0.024-126.434
			c-0.008-3.655,1.092-4.963,4.837-4.918c14.157,0.17,28.32,0.202,42.476-0.016c4.067-0.063,5.085,1.401,5.059,5.222
			C333.032-54.818,333.107-33.662,333.107-12.506z"/>
		<path fill="#FEFEFE" d="M307.057,100.9c13.987,0,27.977,0.134,41.96-0.084c4.02-0.063,5.11,1.296,5.065,5.167
			c-0.181,15.65-0.208,31.306,0.014,46.955c0.058,4.112-1.445,5.029-5.227,5.012c-27.974-0.123-55.949-0.14-83.923,0.015
			c-4.024,0.022-5.108-1.308-5.063-5.175c0.181-15.65,0.208-31.306-0.014-46.955c-0.058-4.114,1.45-5.05,5.226-5.004
			C279.081,101.004,293.07,100.9,307.057,100.9z"/>
		<path fill="#F0CCB2" d="M218.901,584.3c0-69.32,0.005-138.639-0.01-207.959c-0.001-5.509,0.013-10.956,2.187-16.206
			c2.599-6.279,6.16-9.062,12.875-9.068c48.657-0.037,97.314-0.047,145.971,0.004c8.857,0.009,14.622,6.708,14.978,17.681
			c0.313,9.655,0.155,19.327,0.156,28.991c0.003,24.662-0.041,49.323-0.019,73.985c0.005,5.488-1.34,10.565-4.365,15.119
			c-4.301,6.473-10.66,6.33-14.602-0.41c-2.724-4.659-4.132-9.747-4.122-15.234c0.04-22.995-0.092-45.991,0.074-68.986
			c0.03-4.139-1.189-5.382-5.352-5.367c-39.825,0.14-79.651,0.145-119.476-0.005c-4.294-0.016-5.247,1.462-5.244,5.468
			c0.09,121.643,0.094,243.285-0.013,364.928c-0.004,4.309,1.051,5.714,5.554,5.695c39.658-0.171,79.317-0.17,118.975,0
			c4.5,0.019,5.576-1.38,5.56-5.693c-0.144-38.825-0.059-77.651-0.076-116.476c-0.002-5.453,1.193-10.603,3.824-15.337
			c4.146-7.458,11.165-7.464,15.431-0.088c2.374,4.103,3.795,8.514,3.796,13.298c0.008,50.156,0.004,100.313,0.006,150.469
			c0,3.555-0.889,6.908-2.199,10.183c-2.401,6.002-6.179,8.897-13.266,8.852c-47.489-0.297-94.986-0.569-142.467,0.101
			c-14.051,0.198-16.079-7.217-17.949-17.006c-0.585-3.063-0.221-6.315-0.222-9.48C218.899,722.606,218.901,653.453,218.901,584.3z"
			/>
		<path fill="#F0CCB2" d="M357.169,498.966c-0.424,19.862-3.109,36.48-11.172,51.88c-2.562,4.893-5.764,9.311-10.075,12.857
			c-10.124,8.328-20.311,7.923-29.855-1.167c-6.703-6.384-10.933-14.376-13.566-22.989c-9.222-30.174-8.897-59.904,5.524-88.658
			c2.646-5.276,6.403-9.804,11.114-13.305c10.092-7.5,22.386-5.226,30.797,5.301c9.92,12.415,13.972,27.026,16,42.389
			C356.653,490.707,357.511,496.152,357.169,498.966z"/>
		<path fill="#F0CCB2" d="M330.014,659.316c0.628,16.735-2.261,32.113-8.896,46.795c-2.789,6.172-6.622,11.588-11.559,16.117
			c-8.815,8.086-20.434,7.768-29.262-0.449c-10.385-9.666-14.98-22.284-17.67-35.653c-5.148-25.586-3.889-50.664,7.632-74.566
			c3.137-6.509,7.492-12.193,13.648-16.271c7.942-5.26,17.73-4.436,24.903,1.829c10.008,8.74,14.766,20.348,18.047,32.715
			C329.472,639.688,330.618,649.764,330.014,659.316z"/>
		<path fill="#F0CCB2" d="M395.06,562.73c0.271,6.357-0.491,13.376-5.435,19.239c-3.711,4.401-8.009,4.526-11.836,0.301
			c-3.11-3.433-4.727-7.61-5.254-12.147c-1.101-9.481-1.644-18.948,3.942-27.449c4.276-6.507,10.484-6.278,14.569,0.41
			C393.808,547.607,395.068,553.481,395.06,562.73z"/>
		<path fill="#FEFEFE" d="M333.055,500.704c0.224,7.895-0.502,14.792-5.661,20.315c-3.825,4.094-8.438,3.865-11.922-0.386
			c-7.414-9.046-7.379-29.606,0.066-38.555c4.242-5.1,10.627-4.013,14.075,2.537C332.378,489.868,333.716,495.486,333.055,500.704z"
			/>
		<path fill="#FEFEFE" d="M283.569,659.801c-0.164-3.942,0.327-10.982,4.176-17.396c3.885-6.475,9.887-6.768,14.404-0.69
			c6.291,8.466,6.218,28.297-0.135,36.578c-4.653,6.065-10.415,5.677-14.331-0.964C285.102,672.953,284.501,670.718,283.569,659.801
			z"/>
	</g>
</g>
</svg>
