<?xml version="1.0" encoding="utf-8"?>
<!-- Generator: Adobe Illustrator 17.0.0, SVG Export Plug-In . SVG Version: 6.00 Build 0)  -->
<!DOCTYPE svg PUBLIC "-//W3C//DTD SVG 1.1//EN" "http://www.w3.org/Graphics/SVG/1.1/DTD/svg11.dtd">
<svg version="1.1" id="Layer_1" xmlns="http://www.w3.org/2000/svg" xmlns:xlink="http://www.w3.org/1999/xlink" x="0px" y="0px"
	 width="709.014px" height="709.024px" viewBox="0 0 709.014 709.024" enable-background="new 0 0 709.014 709.024"
	 xml:space="preserve">
<g>
	<g>
		<path fill="#FEFEFE" d="M513.936,1c63.472,0,126.945,0.034,190.417-0.089c3.64-0.007,4.663,0.641,4.661,4.527
			c-0.115,233.066-0.112,466.131-0.013,699.197c0.002,3.528-0.628,4.381-4.31,4.379c-232.899-0.114-465.798-0.117-698.697,0.01
			c-4.239,0.002-5.762-0.874-5.05-5.123C1.27,701.956,1,699.912,1,697.913c2.054-0.331,2.346,1.495,3.126,2.634
			c4.764,6.962,13.023,8.095,19.41,2.499c3.131-2.743,5.943-5.834,8.888-8.778c24.978-24.97,49.95-49.946,74.926-74.918
			c1.295-1.295,2.552-2.632,3.964-3.806c2.148-1.786,4.047-1.734,6.105,0.36c6.748,6.867,13.798,13.431,20.365,20.484
			c6.645,7.136,14.979,7.355,21.938,0.532c8.922-8.747,17.661-17.68,26.542-26.469c4.475-4.429,5.137-4.252,9.633,0.083
			c7.417,7.151,14.393,14.773,23.026,20.614c17.49,11.833,47.176,10.559,64.138-6.45c74.351-74.55,148.851-148.953,223.322-223.384
			c7.114-7.11,6.133-8.089,14.794,0.344c3.809,3.709,7.468,7.592,11.506,11.059c6.09,5.229,12.603,4.939,18.244-0.739
			c18.181-18.302,36.431-36.535,54.719-54.731c5.313-5.287,5.618-12.881,0.464-18.339c-9.818-10.397-20.199-20.24-30.232-30.42
			c-10.851-11.01-21.903-21.821-32.698-32.887c-4.756-4.876-9.513-9.773-14.568-14.351c-1.368-1.239-2.504-2.665-3.771-3.977
			c-2.608-2.702-2.463-5.008,0.218-7.676c16.295-16.218,32.541-32.485,48.781-48.759c2.593-2.599,4.497-2.886,7.421,0.012
			c15.121,14.986,29.869,30.345,45.263,45.06c3.598,3.439,6.66,7.418,10.784,10.344c6.466,4.587,11.452,4.52,16.999-0.962
			c16.114-15.927,32.138-31.947,48.063-48.063c5.843-5.913,5.683-12.391-0.032-18.58c-0.904-0.979-1.869-1.901-2.811-2.843
			C640.627,126.904,581.695,68.033,522.916,9.011C520.049,6.133,515.913,4.782,513.936,1z"/>
		<path fill="#FEFEFE" d="M1,689.914C1,461.871,1.013,233.828,0.894,5.785C0.892,1.813,1.575,0.88,5.709,0.883
			C172.785,1.02,339.861,1,506.937,1c-0.049,2.968-3.009,3.208-4.552,4.752c-16.484,16.507-33.071,32.913-49.405,49.568
			c-4.655,4.746-4.604,9.843-0.946,15.462c4.06,6.236,9.94,10.753,15.057,15.943c13.432,13.624,27.051,27.067,40.534,40.644
			c3.638,3.664,3.792,4.284,0.048,8.05c-15.977,16.072-32.074,32.025-48.013,48.134c-3.021,3.053-5.471,3.126-8.428,0.185
			c-7.659-7.62-15.23-15.327-22.91-22.927c-8.51-8.421-16.942-16.921-25.409-25.386c-7.406-7.404-14.96-14.668-22.181-22.245
			c-3.688-3.87-7.59-7.489-11.542-11.037c-4.948-4.442-12.508-3.967-17.219,0.777c-18.299,18.427-36.66,36.791-55.076,55.101
			c-5.663,5.63-5.739,12.025-0.707,18.296c4.502,5.611,10.112,10.115,14.892,15.448c2.606,2.907,2.391,5.169-0.332,7.642
			c-1.354,1.23-2.595,2.588-3.891,3.885c-73.642,73.643-147.093,147.48-221.06,220.796c-19.096,18.928-21.444,52.631-2.825,72.859
			c4.74,5.15,9.804,9.956,14.589,15.048c5.161,5.491,5.366,6.19-0.092,11.666c-7.882,7.907-15.812,15.767-23.673,23.694
			c-9.513,9.593-8.951,16.754,0.939,25.78c6.484,5.917,12.623,12.264,18.62,18.713c1.652,1.776,1.662,3.519,0.279,5.378
			c-1.199,1.612-2.692,2.954-4.105,4.367c-26.979,26.987-53.922,54.009-81.013,80.883C6.021,684.953,4.726,688.689,1,689.914z"/>
		<path fill="#F0CCB2" d="M1,689.914c2.474-4.408,6.219-7.715,9.728-11.224c26.498-26.504,52.948-53.057,79.565-79.44
			c3.318-3.289,4.288-5.118,0.129-8.722c-6.852-5.938-13.017-12.674-19.39-19.155c-7.131-7.253-7.217-15.405,0.044-22.894
			c8.81-9.087,17.733-18.077,26.901-26.8c3.335-3.173,2.751-4.989-0.198-7.93c-8.197-8.178-17.011-15.78-22.797-26.175
			c-7.344-13.193-7.738-26.995-4.122-41.042c2.396-9.308,7.878-16.967,14.754-23.822c54.145-53.972,108.16-108.074,162.214-162.138
			c20.726-20.73,41.418-41.493,62.21-62.158c2.145-2.132,2.835-3.424,0.244-5.855c-4.938-4.631-9.442-9.722-14.203-14.546
			c-6.841-6.93-6.283-14.805,0.812-21.707c11.654-11.338,22.908-23.086,34.373-34.619c6.903-6.944,13.74-13.966,20.885-20.654
			c4.951-4.634,13.813-4.29,18.693,0.627c10.25,10.327,20.662,20.489,30.717,31.02c10.501,10.999,21.683,21.346,32.522,32.023
			c6.362,6.267,12.73,12.534,18.898,18.99c2.121,2.22,3.276,1.615,5.119-0.242c16.428-16.551,32.899-33.06,49.481-49.457
			c2.232-2.207,2.001-3.106-0.172-5.322c-14.968-15.264-30.543-29.921-45.204-45.497c-3.616-3.842-7.795-7.184-11.048-11.421
			c-4.292-5.59-4.223-12.167,0.759-17.204c16.516-16.698,33.159-33.272,49.818-49.827c1.494-1.485,3.46-2.495,5.206-3.725
			c2.333,0,4.666,0,6.999,0c7.097,2.82,11.44,8.957,16.556,14.062c57.445,57.313,114.786,114.729,172.17,172.103
			c6.977,6.976,7.145,14.457,0.245,21.38c-15.645,15.698-31.317,31.37-47.012,47.019c-6.738,6.718-12.555,7.221-19.72,1.202
			c-10.043-8.437-18.834-18.193-28.075-27.473c-9.705-9.745-19.462-19.438-29.138-29.212c-1.563-1.579-2.34-0.312-3.23,0.577
			c-16.981,16.954-33.928,33.942-50.942,50.863c-1.587,1.578-1.413,2.536,0.091,4.023c8.112,8.015,16.147,16.107,24.178,24.203
			c8.633,8.704,17.205,17.468,25.854,26.156c7.112,7.145,14.309,14.204,21.446,21.325c3.866,3.858,7.94,7.547,11.463,11.7
			c5.137,6.054,4.009,14.04-1.698,19.61c-12.005,11.717-23.777,23.674-35.621,35.556c-6.557,6.579-12.93,13.347-19.637,19.77
			c-5.681,5.441-13.909,4.978-19.707-0.674c-4.854-4.732-9.962-9.234-14.484-14.263c-2.814-3.13-4.239-2.007-6.584,0.351
			c-23.735,23.864-47.57,47.629-71.371,71.427c-52.081,52.073-104.059,104.249-156.339,156.12
			c-8.296,8.231-18.909,12.283-30.927,13.299c-21.186,1.792-36.664-8.103-50.293-22.619c-2.271-2.419-5.021-4.46-6.946-7.114
			c-2.331-3.214-3.935-2.453-6.245-0.103c-9.11,9.269-18.354,18.405-27.52,27.618c-2.906,2.92-6.106,4.857-10.44,5.136
			c-5.567,0.358-9.555-2.214-13.184-5.871c-6.874-6.927-13.854-13.756-20.543-20.858c-2.344-2.488-3.43-0.696-4.786,0.649
			c-7.101,7.038-14.16,14.119-21.23,21.188c-20.62,20.62-41.241,41.24-61.857,61.864C17.106,711.323,9.686,710.758,1,697.913
			C1,695.246,1,692.58,1,689.914z"/>
		<path fill="#FEFEFE" d="M265.029,363.854c0.428-4.579-1.742-8.166-4.944-11.356c-9.795-9.759-19.452-19.66-29.401-29.259
			c-2.776-2.679-2.616-4.159,0.083-6.67c5.484-5.103,10.766-10.443,15.862-15.935c2.577-2.778,4.123-2.528,6.734,0.098
			c31.115,31.295,62.357,62.463,93.564,93.666c6.479,6.479,12.842,13.08,19.49,19.381c2.446,2.319,1.731,3.473-0.295,5.46
			c-11.006,10.793-21.877,21.724-32.777,32.624c-12.1,12.101-24.183,24.219-36.27,36.332c-5.744,5.756-11.513,11.486-17.212,17.286
			c-6.396,6.508-6.679,13.732-0.872,19.878c5.307,5.616,13.948,5.717,20.062-0.174c8.145-7.848,16.017-15.978,24.017-23.977
			c10.805-10.804,21.659-21.559,32.416-32.41c8.999-9.078,17.876-18.277,26.844-27.386c1.272-1.292,2.909-2.239,4.106-3.587
			c1.506-1.696,2.554-1.439,4.028,0.065c6.18,6.306,12.369,12.609,18.739,18.721c3.132,3.005,0.245,4.355-1.324,5.93
			c-20.458,20.535-40.962,41.025-61.467,61.513c-27.222,27.2-54.44,54.405-81.693,81.574c-9.15,9.122-24.793,9.582-34.512,1.072
			c-13.385-11.72-25.393-24.852-38.066-37.301c-14.328-14.074-28.548-28.262-42.602-42.609
			c-15.802-16.132-32.492-31.395-47.507-48.296c-8.296-9.338-7.714-25.196,1.109-34.139c5.85-5.93,11.836-11.729,17.568-17.77
			c2.109-2.223,3.341-2.238,5.522-0.005c10.126,10.37,20.379,20.618,30.717,30.778c7.864,7.729,18.884,5.494,23.135-4.654
			c2.429-5.799,0.46-10.711-3.757-14.935c-10.123-10.14-20.196-20.332-30.438-30.35c-2.249-2.2-2.649-3.534-0.154-5.88
			c6.066-5.704,11.893-11.664,17.726-17.609c1.732-1.765,2.613-2.074,4.664,0.06c7.551,7.858,15.546,15.287,23.24,23.01
			c8.408,8.439,16.605,17.087,25.016,25.521c4.901,4.914,9.844,9.822,15.134,14.3c4.693,3.973,13.36,2.868,17.836-1.713
			c4.647-4.757,5.083-12.59,0.676-17.687c-6.937-8.022-14.632-15.311-22.266-22.667c-7.376-7.108-14.337-14.643-21.567-21.905
			c-5.378-5.401-10.773-10.795-16.387-15.946c-4.304-3.948-4.488-4.874-0.387-8.937c4.97-4.925,10.061-9.744,14.765-14.914
			c2.754-3.027,4.489-3.202,7.464-0.114c9.938,10.317,20.18,20.341,30.338,30.444c3.729,3.708,10.587,5.182,15.207,2.823
			C262.022,373.74,265.456,370.015,265.029,363.854z"/>
		<path fill="#FEFEFE" d="M361.212,131.403c0.603,0.685,1.065,1.315,1.629,1.835c10.102,9.306,19.454,19.37,29.258,28.959
			c7.557,7.391,15.072,14.86,22.537,22.333c8.409,8.418,16.869,16.821,25.202,25.321c7.267,7.414,14.642,14.792,22.173,21.983
			c8.73,8.335,16.729,17.436,25.484,25.743c4.438,4.211,8.659,8.631,13.088,12.845c5.041,4.795,9.892,9.79,14.817,14.707
			c4.785,4.778,9.581,9.546,14.333,14.356c5.119,5.182,10.16,10.441,15.299,15.603c4.083,4.101,8.183,8.197,12.28,12.269
			c6.335,6.296,12.703,12.548,18.864,19.022c1.501,1.577,0.773,2.095-0.203,3.07c-6.573,6.572-13.217,13.076-19.677,19.757
			c-4.146,4.288-8.157,8.691-12.625,12.672c-1.742,1.552-2.703,1.775-4.412,0.045c-9.318-9.435-18.521-19.002-28.199-28.058
			c-8.472-7.927-16.442-16.333-24.649-24.51c-14.453-14.4-28.704-29.002-43.131-43.429c-14.559-14.559-29.287-28.949-43.837-43.517
			c-21.11-21.136-42.106-42.385-63.203-63.534c-3.157-3.165-6.769-5.853-9.516-9.464c-1.058-1.391-1.598-2.199-0.102-3.68
			c11.009-10.9,21.937-21.883,32.896-32.834C359.98,132.439,360.494,132.035,361.212,131.403z"/>
		<path fill="#FEFEFE" d="M379.927,308.536c-0.324-3.507-1.79-7.002-4.81-10.004c-19.853-19.733-39.548-39.626-59.495-59.262
			c-3.132-3.083-3.318-4.739,0.045-7.675c4.883-4.263,9.478-8.918,13.751-13.795c2.75-3.139,4.713-2.017,6.825,0.196
			c12.572,13.173,25.732,25.764,38.482,38.746c13.584,13.832,27.494,27.339,40.966,41.283
			c10.596,10.967,21.426,21.716,32.379,32.326c2.907,2.816,2.78,4.477-0.081,7.082c-12.402,11.293-23.633,23.78-35.81,35.328
			c-7.061,6.696-13.991,13.647-20.562,20.875c-2.453,2.698-3.957,2.539-6.407,0.082c-37.531-37.636-75.109-75.224-112.78-112.719
			c-2.643-2.63-2.166-4.086,0.229-6.36c5.797-5.506,11.522-11.106,16.959-16.964c2.395-2.58,3.609-2.034,5.794,0.171
			c19.356,19.523,38.847,38.912,58.261,58.377c4.833,4.846,10.042,8.279,17.267,5.61
			C376.153,319.908,379.818,314.71,379.927,308.536z"/>
		<path fill="#FEFEFE" d="M673.669,197.466c0.066,1.493-0.817,2.108-1.499,2.793c-8.224,8.26-16.525,16.445-24.666,24.785
			c-2.135,2.187-3.409,1.554-5.257-0.304c-16.576-16.673-33.395-33.109-49.799-49.948c-10.844-11.132-21.874-22.09-32.819-33.112
			c-8.142-8.199-16.35-16.389-24.675-24.434c-11.293-10.913-21.783-22.662-33.151-33.492c-5.754-5.482-11.029-11.473-17.141-16.56
			c-3.013-2.508-2.523-4.186,0.094-6.698c7.806-7.494,15.445-15.169,22.962-22.954c2.387-2.472,3.841-2.539,6.34-0.028
			c31.36,31.512,62.833,62.91,94.27,94.346c20.84,20.839,41.668,41.69,62.494,62.543
			C671.866,195.446,672.834,196.563,673.669,197.466z"/>
		<path fill="#FEFEFE" d="M529.492,152.027c1.304,0.041,2.057,0.983,2.874,1.799c7.621,7.61,15.202,15.262,22.877,22.817
			c1.967,1.936,2.046,3.472,0.063,5.446c-16.635,16.562-33.249,33.146-49.78,49.812c-1.794,1.808-2.755,1.353-4.449-0.062
			c-4.458-3.725-8.285-8.128-12.329-12.212c-3.817-3.855-8.05-7.371-11.533-11.609c-1.534-1.867-1.986-2.896-0.021-4.826
			c13.884-13.63,27.65-27.38,41.435-41.111c2.706-2.695,5.321-5.48,7.991-8.212C527.432,153.039,528.207,152.13,529.492,152.027z"/>
		<path fill="#FEFEFE" d="M493.414,376.047c0.024,1.532-1.14,2.118-1.916,2.895c-19.159,19.194-38.374,38.332-57.48,57.577
			c-2.246,2.262-3.661,2.537-5.994,0.071c-5.714-6.042-11.622-11.91-17.651-17.639c-2.12-2.015-1.917-3.262,0.003-5.162
			c7.291-7.216,14.423-14.592,21.688-21.833c12.091-12.05,24.309-23.972,36.293-36.127c2.019-2.048,2.599-2.661,5.064-0.242
			c5.781,5.674,10.966,11.973,17.378,17.014C491.93,373.488,492.604,374.951,493.414,376.047z"/>
		<path fill="#FEFEFE" d="M148.97,609.927c-0.916-0.768-1.751-1.307-2.387-2.025c-10.1-11.396-21.522-21.495-32.083-32.446
			c-4.192-4.346-7.863-9.456-13.141-12.8c-2.653-1.681-2.3-3.461-0.101-5.547c6.025-5.717,11.975-11.519,17.769-17.468
			c1.875-1.925,2.97-1.921,4.83-0.028c14.873,15.134,29.754,30.262,44.854,45.168c2.514,2.482,2.263,3.706,0.003,5.888
			c-5.752,5.554-11.305,11.314-16.964,16.965C150.951,608.433,150.004,609.082,148.97,609.927z"/>
		<path fill="#F0CCB2" d="M236.899,554.151c-0.023-8.102,5.236-13.314,13.41-13.292c8.105,0.022,13.374,5.334,13.742,13.187
			c0.415,8.858-7.249,13.78-13.797,13.861C242.846,567.999,236.92,561.731,236.899,554.151z"/>
	</g>
</g>
</svg>
